<?xml version="1.0" encoding="UTF-8"?>
<svg version="1.1" xmlns="http://www.w3.org/2000/svg" width="1280" height="1310">
<path d="M0 0 C1.51303711 0.00676758 1.51303711 0.00676758 3.05664062 0.01367188 C5.51699147 0.02533231 7.97721239 0.04169622 10.4375 0.0625 C10.49125793 0.80371094 10.54501587 1.54492188 10.60040283 2.30859375 C11.11495985 9.36846189 11.64319986 16.4271507 12.18600845 23.4848938 C12.46446638 27.11150493 12.73801613 30.73833413 12.99951172 34.36621094 C14.9635895 61.52761225 17.44666886 84.57818269 37.875 104.625 C53.17840668 117.82243328 72.45045097 123.56058332 92.44580078 122.24267578 C107.28416445 120.90034771 121.85465549 115.45237911 133.4375 106.0625 C134.21738281 105.44503906 134.99726563 104.82757813 135.80078125 104.19140625 C149.85566056 92.45144824 154.88433772 77.8283114 158.4375 60.0625 C158.7675 40.5925 159.0975 21.1225 159.4375 1.0625 C263.0575 1.0625 366.6775 1.0625 473.4375 1.0625 C474.7575 19.8725 476.0775 38.6825 477.4375 58.0625 C479.47842381 70.9796798 479.47842381 70.9796798 484.125 82.4375 C484.64827881 83.4265332 484.64827881 83.4265332 485.18212891 84.43554688 C495.10598953 102.6344902 510.79477254 112.51691637 530.40234375 118.3359375 C551.20079882 123.31471825 572.20194545 120.00383273 590.4375 109.0625 C605.31190593 98.99978657 616.37902485 84.12132284 619.92163086 66.31494141 C622.15197401 52.25311868 621.55986022 37.75050073 621.5 23.5625 C621.49497084 21.467449 621.49041046 19.37239681 621.48632812 17.27734375 C621.47544422 12.20569938 621.45825912 7.13411317 621.4375 2.0625 C624.14551349 1.73153733 626.85386125 1.40389672 629.5625 1.078125 C630.32304688 0.9848291 631.08359375 0.8915332 631.8671875 0.79541016 C661.28232381 -2.72299516 692.57843212 5.55561277 716.28613281 23.45849609 C739.49707553 41.80262824 756.07990631 66.84838118 760.0703125 96.56640625 C760.82222886 103.72560985 761.15734067 110.87254885 761.4375 118.0625 C761.48261719 119.08633789 761.52773437 120.11017578 761.57421875 121.16503906 C762.99906252 154.42743914 762.63599454 187.7639785 762.44865417 221.04872894 C762.43792985 222.98489514 762.42823302 224.92106694 762.4185791 226.85723877 C762.38403953 233.32460913 762.32807368 239.79089375 762.22796631 246.25759888 C762.20127759 248.10751372 762.18083336 249.95753064 762.16705322 251.80758667 C762.14616352 254.30998193 762.10040207 256.81061993 762.046875 259.3125 C762.04563629 260.02161026 762.04439758 260.73072052 762.04312134 261.46131897 C761.89445932 266.4193149 760.56467342 269.25494309 757.4375 273.0625 C755.31201172 274.90283203 755.31201172 274.90283203 752.9921875 276.4453125 C752.11014648 277.03344727 751.22810547 277.62158203 750.31933594 278.22753906 C745.11333999 281.5423701 739.85430253 284.76195712 734.5625 287.9375 C732.72870197 289.04246491 730.89549492 290.14840618 729.06228638 291.25434875 C727.79715495 292.01739998 726.53175152 292.78000041 725.26608276 293.54216003 C720.64916555 296.32413547 716.04835219 299.13158862 711.453125 301.94921875 C709.5287857 303.12682868 707.60423668 304.30409511 705.67962646 305.48126221 C704.43774173 306.24199831 703.19672853 307.00415905 701.956604 307.76776123 C700.23133944 308.82964622 698.50247484 309.88567551 696.7734375 310.94140625 C695.78907715 311.5454126 694.8047168 312.14941895 693.79052734 312.77172852 C691.4375 314.0625 691.4375 314.0625 689.4375 314.0625 C689.41562622 313.14307617 689.41562622 313.14307617 689.39331055 312.20507812 C688.66754987 284.77491503 685.00219626 260.22615738 664.19921875 240.37890625 C647.80782592 226.63053857 627.4553302 220.89085191 606.36534405 220.93107224 C604.85950939 220.92799328 604.85950939 220.92799328 603.32325384 220.92485213 C599.95024671 220.91918554 596.57728046 220.92063898 593.20426941 220.92205811 C590.7650494 220.91947427 588.32582981 220.91646105 585.88661081 220.9130547 C579.8799018 220.90583005 573.87320652 220.90328217 567.86649452 220.90272565 C560.67067845 220.90181096 553.47487058 220.89514023 546.27905805 220.88837883 C528.88626663 220.87232601 511.4934761 220.86641604 494.10067861 220.86163008 C485.86924567 220.85929308 477.63781343 220.85569028 469.40638103 220.8519347 C441.218389 220.83909888 413.03039735 220.82838047 384.84240246 220.8249321 C383.07319083 220.82471047 381.30397921 220.82448868 379.53476759 220.82426675 C377.76132396 220.82404611 375.98788034 220.82382563 374.21443671 220.8236053 C370.65671106 220.82316275 367.09898541 220.82271563 363.54125977 220.82226562 C362.65915192 220.82215623 361.77704407 220.82204684 360.86820567 220.82193414 C332.27921836 220.81830519 303.69025643 220.80239142 275.10127883 220.77907526 C244.86183215 220.75445823 214.62239997 220.74075836 184.38294297 220.73956418 C181.06084557 220.73939273 177.73874817 220.73917731 174.41665077 220.73892975 C173.59868165 220.73887398 172.78071254 220.73881821 171.93795647 220.73876075 C158.7949738 220.73761184 145.65201723 220.72660327 132.50904336 220.71204269 C119.28776843 220.69764915 106.06652684 220.69445678 92.84524622 220.70248267 C84.99938821 220.70692572 77.15363813 220.70313164 69.30779439 220.68724416 C63.43562855 220.67628914 57.56354283 220.68117683 51.69137458 220.69201604 C49.32586725 220.69396865 46.96034898 220.69091492 44.594857 220.68217167 C18.4974298 220.59186692 -6.94838959 222.9624733 -26.8125 241.8125 C-38.14731685 253.75806768 -44.71574147 268.7809418 -44.66809082 285.3581543 C-44.66712426 286.44916474 -44.66712426 286.44916474 -44.66613817 287.56221581 C-44.66290053 290.00374917 -44.65261664 292.44520461 -44.64257812 294.88671875 C-44.63922795 296.64879772 -44.63640949 298.41087776 -44.63407898 300.17295837 C-44.62831607 304.00026433 -44.619801 307.82755051 -44.60923767 311.65484619 C-44.58083189 322.23992842 -44.57425802 332.82504247 -44.56640625 343.41015625 C-44.56544543 344.52745369 -44.56448462 345.64475113 -44.56349468 346.79590607 C-44.54309233 372.23914094 -44.64212251 397.68149978 -44.76420593 423.12439728 C-44.78135152 426.70872374 -44.7981384 430.29305172 -44.81481934 433.87738037 C-44.9057369 453.38244472 -45.00197521 472.88748201 -45.09893799 492.39251709 C-45.36381002 545.73272109 -45.61004824 599.07227331 -45.61303902 652.41324615 C-45.61327646 655.59600846 -45.61399712 658.77877038 -45.61477661 661.96153259 C-45.61894541 686.14272036 -45.54950342 710.3204474 -45.25 734.5 C-45.23576209 735.65363194 -45.22152418 736.80726389 -45.20685482 737.99585438 C-44.94695262 757.80126705 -42.87155258 775.70316791 -30.5625 792.0625 C-30.11261719 792.67738281 -29.66273438 793.29226563 -29.19921875 793.92578125 C-19.11804304 806.73313406 -1.90280848 813.29442037 13.83540344 815.38031006 C16.56928106 815.66545226 19.30268566 815.90187904 22.04296875 816.1171875 C23.10747757 816.20130386 24.17198639 816.28542023 25.26875305 816.37208557 C35.15601803 817.08495993 45.04140387 817.37088366 54.94921875 817.58984375 C55.76371994 817.60785978 56.57822113 817.62587582 57.41740417 817.64443779 C65.02902618 817.8094355 72.64097127 817.95615783 80.25317383 818.09155273 C126.76062347 818.93327555 126.76062347 818.93327555 146.625 824.8125 C147.52460449 825.06926514 148.42420898 825.32603027 149.35107422 825.59057617 C193.24393803 838.417415 240.05903417 863.08449907 268.4375 900.0625 C268.4375 900.7225 268.4375 901.3825 268.4375 902.0625 C265.61733474 903.00255509 263.90381553 903.18934088 260.98561954 903.19392776 C260.06888055 903.19776891 259.15214155 903.20161005 258.20762259 903.2055676 C256.69454202 903.20426787 256.69454202 903.20426787 255.15089417 903.20294189 C254.08030083 903.20591302 253.0097075 903.20888414 251.90667194 903.2119453 C248.30048507 903.22065264 244.69433133 903.22214232 241.08813477 903.22363281 C238.50933765 903.22825991 235.93054123 903.23328442 233.35174561 903.23867798 C226.32807883 903.25227023 219.30441776 903.25828911 212.28074002 903.26268864 C207.88829442 903.26545295 203.49585102 903.26969098 199.10340691 903.27419281 C186.92634628 903.28639306 174.74928741 903.2966867 162.5722208 903.3000679 C161.40255024 903.30039725 161.40255024 903.30039725 160.20924997 903.30073325 C159.03683837 903.30106067 159.03683837 903.30106067 157.84074169 903.3013947 C156.25702766 903.30183816 154.67331364 903.30228472 153.08959961 903.30273438 C152.30402941 903.3029558 151.51845921 903.30317723 150.70908385 903.30340537 C138.01926795 903.30734165 125.32950989 903.32475633 112.63971628 903.3480939 C99.59013924 903.37189756 86.54059108 903.38427405 73.49099201 903.38543582 C66.17307099 903.38634823 58.85522507 903.39198884 51.53732491 903.41025543 C44.63855912 903.42741519 37.73993701 903.42884213 30.84115601 903.42011642 C28.3226731 903.41935125 25.80418227 903.42361927 23.28571892 903.43357468 C2.54073823 903.51069895 -16.87424499 901.87208083 -36.5625 895.0625 C-37.19994141 894.84223145 -37.83738281 894.62196289 -38.49414062 894.39501953 C-54.13350619 888.85037319 -67.82905445 880.61356015 -80.5625 870.0625 C-81.38363281 869.39476562 -82.20476562 868.72703125 -83.05078125 868.0390625 C-89.00728242 862.99815478 -93.82535441 857.24443122 -98.5625 851.0625 C-99.14644531 850.31742188 -99.73039062 849.57234375 -100.33203125 848.8046875 C-122.37234078 819.17673042 -126.90760874 784.2633028 -126.80541992 748.3984375 C-126.80647397 746.16031719 -126.80839456 743.92219715 -126.81109524 741.68407822 C-126.81588721 735.56423373 -126.80813493 729.44446173 -126.79810572 723.32462597 C-126.79020607 717.34699141 -126.79164279 711.36936021 -126.79256731 705.39172205 C-126.79414292 692.31705862 -126.78367715 679.2424249 -126.76806229 666.16777191 C-126.754307 654.64208112 -126.7447078 643.11639567 -126.73873901 631.59069824 C-126.69135356 542.495378 -126.5172755 453.40015057 -126.17150801 321.30358934 C-126.14551217 311.86588724 -126.11988218 302.4281845 -126.0953331 292.99047852 C-126.04341666 273.05256758 -125.98902247 253.11467006 -125.92592239 233.17679095 C-125.92052679 231.4695325 -125.91513532 229.76227404 -125.90974808 228.05501556 C-125.90710674 227.21808977 -125.90446541 226.38116398 -125.90174404 225.51887681 C-125.88382017 219.77108523 -125.86809039 214.02329041 -125.85337448 208.27548981 C-125.70307584 150.22958286 -125.70307584 150.22958286 -125.09350586 127.56152344 C-125.06364049 126.44358265 -125.06364049 126.44358265 -125.03317177 125.30305719 C-124.0178312 88.78866862 -116.42193692 58.13494215 -89.1953125 32.3203125 C-65.1232323 10.3067747 -32.265214 -0.27759615 0 0 Z " fill="#024E38" transform="translate(319.5625,95.9375)"/>
<path d="M0 0 C2.99215466 0.00315244 5.98330872 -0.02038333 8.9753418 -0.0456543 C82.73232743 -0.28469223 149.64010783 33.02550732 201.51245117 83.81567383 C206.6715765 89.03384494 211.29036528 94.55345047 215.82495117 100.31567383 C216.70802861 101.40896029 217.59218723 102.50137413 218.47729492 103.59301758 C263.82572669 159.8721591 283.87183928 232.52456603 276.63745117 304.19067383 C270.79033332 356.82884944 250.17680235 406.19994909 216.82495117 447.31567383 C216.05924805 448.28504883 215.29354492 449.25442383 214.50463867 450.25317383 C201.74812767 465.9288864 187.15902273 480.40455616 170.82495117 492.31567383 C169.88393555 493.05172852 168.94291992 493.7877832 167.97338867 494.54614258 C124.58103524 528.31567383 124.58103524 528.31567383 106.82495117 528.31567383 C106.55110596 528.90791748 106.27726074 529.50016113 105.99511719 530.11035156 C104.86677404 532.23685348 103.69415423 533.80672745 102.10229492 535.60083008 C101.30178711 536.51155273 101.30178711 536.51155273 100.48510742 537.44067383 C99.63239258 538.39973633 99.63239258 538.39973633 98.76245117 539.37817383 C97.57244656 540.73258697 96.3836486 542.08806121 95.19604492 543.44458008 C94.61580566 544.10731934 94.03556641 544.77005859 93.43774414 545.45288086 C91.34832645 547.86618043 89.33033792 550.33228055 87.32495117 552.81567383 C83.74953591 557.23236326 80.05895769 561.53347768 76.32495117 565.81567383 C71.8274714 570.97418694 67.43499665 576.19724477 63.12573242 581.51489258 C59.44488704 585.99565003 55.64981924 590.37726569 51.86791992 594.77270508 C48.98264542 598.12710011 46.11816056 601.49859372 43.26245117 604.87817383 C42.58786865 605.67650635 42.58786865 605.67650635 41.8996582 606.4909668 C40.99426676 607.56280723 40.088993 608.63474708 39.18383789 609.70678711 C36.89948932 612.41139672 34.61205609 615.1133951 32.32495117 617.81567383 C31.40826992 618.89899482 30.49160324 619.98232815 29.57495117 621.06567383 C27.74161784 623.23234049 25.90828451 625.39900716 24.07495117 627.56567383 C23.62063721 628.10297119 23.16632324 628.64026855 22.69824219 629.19384766 C21.78879089 630.26788943 20.87783941 631.34066284 19.96533203 632.41210938 C17.54890921 635.25355946 15.16872042 638.11776024 12.82885742 641.02270508 C12.33643555 641.62598633 11.84401367 642.22926758 11.33666992 642.85083008 C10.39074089 644.01093172 9.45404893 645.1786445 8.52807617 646.35473633 C7.23510742 647.92895508 7.23510742 647.92895508 4.82495117 650.31567383 C0.82495117 650.31567383 0.82495117 650.31567383 -1.58520508 647.92895508 C-2.4810955 646.83826175 -3.36444928 645.73719536 -4.23754883 644.62817383 C-5.21505962 643.42866667 -6.19293448 642.22945614 -7.17114258 641.03051758 C-7.66855957 640.41289551 -8.16597656 639.79527344 -8.6784668 639.15893555 C-11.00390271 636.29481791 -13.40456474 633.4961843 -15.80004883 630.69067383 C-19.09437886 626.80870966 -22.34369457 622.89595755 -25.55004883 618.94067383 C-29.71726007 613.81754316 -34.0381734 608.83972454 -38.37768555 603.86303711 C-42.27913937 599.37835865 -46.05982789 594.81094675 -49.80004883 590.19067383 C-52.70000758 586.68019744 -55.68263021 583.24734656 -58.67504883 579.81567383 C-63.15039399 574.68339726 -67.51512009 569.48382109 -71.80004883 564.19067383 C-74.70000868 560.68019612 -77.6826664 557.24737991 -80.67504883 553.81567383 C-85.27137511 548.54361302 -89.77607336 543.21909468 -94.17504883 537.78051758 C-94.83504883 536.96711914 -95.49504883 536.1537207 -96.17504883 535.31567383 C-96.80024414 534.36176758 -97.42543945 533.40786133 -98.06958008 532.42504883 C-101.87519001 527.88480708 -107.6357993 525.89431245 -112.91818237 523.50891113 C-116.21473056 522.01567772 -119.48452957 520.46650647 -122.75317383 518.91333008 C-123.72171547 518.45360306 -123.72171547 518.45360306 -124.70982361 517.98458862 C-141.85169329 509.77086458 -157.60229031 498.44874781 -172.17504883 486.31567383 C-172.95549561 485.67057861 -172.95549561 485.67057861 -173.75170898 485.01245117 C-185.49153789 475.27723107 -196.53438718 465.0266293 -206.01098633 453.03442383 C-208.2633112 450.20478825 -210.62108488 447.48775439 -212.98754883 444.75317383 C-219.39404893 437.0653737 -224.82692847 428.76255271 -230.17504883 420.31567383 C-230.61349121 419.62344727 -231.05193359 418.9312207 -231.50366211 418.21801758 C-252.47307397 384.71859548 -265.66786328 346.56485064 -270.17504883 307.31567383 C-270.26124481 306.57134094 -270.3474408 305.82700806 -270.43624878 305.06011963 C-271.08551701 299.06662613 -271.34798177 293.1466485 -271.37817383 287.12036133 C-271.38523346 286.17825302 -271.39229309 285.23614471 -271.39956665 284.26548767 C-271.62654867 245.0796431 -271.62654867 245.0796431 -268.17504883 227.31567383 C-267.98168945 226.27636719 -267.78833008 225.23706055 -267.58911133 224.16625977 C-256.46850863 165.69728848 -225.79271059 106.62437149 -179.17504883 68.31567383 C-178.27141602 67.52418945 -177.3677832 66.73270508 -176.43676758 65.91723633 C-140.12681785 34.17797285 -95.63724993 13.33063448 -48.42504883 4.06567383 C-47.659104 3.91445068 -46.89315918 3.76322754 -46.10400391 3.60742188 C-30.77488785 0.78803621 -15.557604 -0.03408157 0 0 Z M-126.17504883 138.31567383 C-126.71274902 138.82614258 -127.25044922 139.33661133 -127.80444336 139.86254883 C-159.65119417 170.29606119 -182.95229545 214.63156154 -184.35205078 259.33129883 C-184.37815559 260.74266356 -184.39834308 262.15414726 -184.41333008 263.56567383 C-184.42312393 264.33299835 -184.43291779 265.10032288 -184.44300842 265.89089966 C-184.69558734 290.83224218 -182.38926956 313.60680552 -174.17504883 337.31567383 C-173.83932861 338.29358887 -173.83932861 338.29358887 -173.49682617 339.29125977 C-167.42425322 356.57020146 -158.38863642 372.87393223 -147.17504883 387.31567383 C-146.5330957 388.16774414 -145.89114258 389.01981445 -145.22973633 389.89770508 C-137.30944345 400.15431866 -128.32636131 410.22459081 -118.17504883 418.31567383 C-116.81766602 419.42942383 -116.81766602 419.42942383 -115.43286133 420.56567383 C-76.15697592 452.20999027 -26.00625636 466.59300709 24.06445312 461.3684082 C73.56095063 455.4366737 119.30265648 430.34709272 150.45092773 391.27612305 C173.86446815 360.98150396 189.66771574 322.93840633 190.82495117 284.31567383 C190.85073242 283.6452002 190.87651367 282.97472656 190.90307617 282.28393555 C192.78299648 228.0599843 171.87497752 180.73630884 135.89135742 141.19067383 C130.96187295 136.08386977 125.38901317 131.70485421 119.82495117 127.31567383 C118.88522461 126.5705957 117.94549805 125.82551758 116.97729492 125.05786133 C93.042247 106.56698985 65.39955481 95.02698034 35.82495117 89.31567383 C34.74213867 89.10040039 33.65932617 88.88512695 32.54370117 88.66333008 C-24.76701327 78.54533023 -84.43765878 98.60080048 -126.17504883 138.31567383 Z " fill="#024F39" transform="translate(636.175048828125,339.684326171875)"/>
<path d="M0 0 C3.65565505 1.38440475 7.02580406 3.02273362 10.4453125 4.9140625 C11.50927246 5.50243896 12.57323242 6.09081543 13.66943359 6.69702148 C14.80977051 7.33325439 15.95010742 7.9694873 17.125 8.625 C17.71259094 8.95202911 18.30018188 9.27905823 18.90557861 9.61599731 C31.35236769 16.54972641 43.64452776 23.74147144 55.84570312 31.09863281 C58.0734095 32.44146387 60.30589637 33.77309306 62.54492188 35.09667969 C63.71505792 35.7971684 64.88498548 36.49800552 66.0546875 37.19921875 C67.10382324 37.82272217 68.15295898 38.44622559 69.23388672 39.08862305 C73.75121893 42.21008764 76.57104743 46.14209487 79 51 C79.09621286 53.99182113 79.12706667 56.95980019 79.11523438 59.9519043 C79.1152092 60.92804247 79.11518402 61.90418064 79.11515808 62.90989876 C79.11328325 66.31886556 79.10356376 69.72776602 79.09375 73.13671875 C79.08990775 75.67404651 79.08629628 78.21137463 79.08288574 80.748703 C79.00080508 131.17002413 78.69164418 181.59149089 78.44538182 232.01219982 C78.18749862 284.83945262 77.9524286 337.66613224 77.94946098 390.49411559 C77.94922352 393.67054431 77.94850289 396.84697264 77.94772339 400.02340126 C77.94355266 424.16313441 78.01370284 448.29939786 78.3125 472.4375 C78.32673791 473.59133021 78.34097582 474.74516043 78.35564518 475.93395519 C78.61554966 495.73914509 80.69110028 513.64087107 93 530 C93.44988281 530.61488281 93.89976562 531.22976563 94.36328125 531.86328125 C104.44445696 544.67063406 121.65969152 551.23192037 137.39790344 553.31781006 C140.13178106 553.60295226 142.86518566 553.83937904 145.60546875 554.0546875 C146.66997757 554.13880386 147.73448639 554.22292023 148.83125305 554.30958557 C158.71851803 555.02245993 168.60390387 555.30838366 178.51171875 555.52734375 C179.32621994 555.54535978 180.14072113 555.56337582 180.97990417 555.58193779 C188.59152618 555.7469355 196.20347127 555.89365783 203.81567383 556.02905273 C250.32312347 556.87077555 250.32312347 556.87077555 270.1875 562.75 C271.08710449 563.00676514 271.98670898 563.26353027 272.91357422 563.52807617 C316.80643803 576.354915 363.62153417 601.02199907 392 638 C392 638.66 392 639.32 392 640 C389.17983474 640.94005509 387.46631553 641.12684088 384.54811954 641.13142776 C383.63138055 641.13526891 382.71464155 641.13911005 381.77012259 641.1430676 C380.25704202 641.14176787 380.25704202 641.14176787 378.71339417 641.14044189 C377.64280083 641.14341302 376.5722075 641.14638414 375.46917194 641.1494453 C371.86298507 641.15815264 368.25683133 641.15964232 364.65063477 641.16113281 C362.07183765 641.16575991 359.49304123 641.17078442 356.91424561 641.17617798 C349.89057883 641.18977023 342.86691776 641.19578911 335.84324002 641.20018864 C331.45079442 641.20295295 327.05835102 641.20719098 322.66590691 641.21169281 C310.48884628 641.22389306 298.31178741 641.2341867 286.1347208 641.2375679 C284.96505024 641.23789725 284.96505024 641.23789725 283.77174997 641.23823325 C282.59933837 641.23856067 282.59933837 641.23856067 281.40324169 641.2388947 C279.81952766 641.23933816 278.23581364 641.23978472 276.65209961 641.24023438 C275.86652941 641.2404558 275.08095921 641.24067723 274.27158385 641.24090537 C261.58176795 641.24484165 248.89200989 641.26225633 236.20221628 641.2855939 C223.15263924 641.30939756 210.10309108 641.32177405 197.05349201 641.32293582 C189.73557099 641.32384823 182.41772507 641.32948884 175.09982491 641.34775543 C168.20105912 641.36491519 161.30243701 641.36634213 154.40365601 641.35761642 C151.8851731 641.35685125 149.36668227 641.36111927 146.84821892 641.37107468 C126.10323823 641.44819895 106.68825501 639.80958083 87 633 C86.36255859 632.77973145 85.72511719 632.55946289 85.06835938 632.33251953 C69.42899381 626.78787319 55.73344555 618.55106015 43 608 C42.17886719 607.33226562 41.35773438 606.66453125 40.51171875 605.9765625 C34.55521758 600.93565478 29.73714559 595.18193122 25 589 C24.41605469 588.25492188 23.83210938 587.50984375 23.23046875 586.7421875 C0.73487488 556.50220886 -3.338616 521.04330436 -3.24291992 484.51098633 C-3.24397011 482.08900878 -3.24588605 479.66703147 -3.24858665 477.2450552 C-3.2528612 471.34487574 -3.24787758 465.44474735 -3.23866561 459.54457762 C-3.22816114 452.51027947 -3.22909488 445.47599409 -3.23018648 438.44168983 C-3.23195844 423.98716445 -3.21984015 409.53267155 -3.20308512 395.07815731 C-3.19030692 383.99024659 -3.18152136 372.90233882 -3.17523193 361.81442261 C-3.14906911 316.87622113 -3.08941607 271.93812005 -3 227 C-2.99850366 226.24712503 -2.99700732 225.49425006 -2.99546564 224.7185607 C-2.9182439 186.00009853 -2.81294384 147.28181724 -2.66554981 108.56355053 C-2.63322068 100.00084184 -2.60529449 91.4381257 -2.57894897 82.87539673 C-2.54685755 72.54051008 -2.50722431 62.2056851 -2.45751089 51.87086761 C-2.43247934 46.65287443 -2.41037969 41.43491694 -2.39660454 36.2168808 C-2.38393854 31.48537645 -2.36209926 26.75401003 -2.332605 22.02258146 C-2.32353763 20.31249622 -2.31785199 18.60238921 -2.31578958 16.89228117 C-2.31248981 14.58371352 -2.29709952 12.27554346 -2.2784729 9.96705627 C-2.27294214 8.68423547 -2.26741138 7.40141466 -2.26171303 6.0797205 C-2 3 -2 3 0 0 Z " fill="#FE6A34" transform="translate(196,358)"/>
<path d="M0 0 C1.58373413 0.00507568 1.58373413 0.00507568 3.19946289 0.01025391 C5.77623891 0.01900357 8.35294537 0.03127995 10.9296875 0.046875 C10.95281019 11.24260744 10.97060221 22.43833424 10.98149967 33.63408566 C10.98672866 38.83215615 10.9938266 44.03021036 11.00512695 49.22827148 C11.01595526 54.24029768 11.02196421 59.25230818 11.02456474 64.26434517 C11.02641909 66.18099782 11.0300399 68.09764957 11.03541756 70.01429558 C11.04262725 72.68915572 11.04367847 75.36395014 11.04321289 78.03881836 C11.04680817 78.8393866 11.05040344 79.63995483 11.05410767 80.46478271 C11.04373966 85.93282284 11.04373966 85.93282284 9.9296875 87.046875 C8.2868517 87.21568154 6.63769187 87.32348694 4.98828125 87.40625 C-41.86862555 90.1296499 -83.83827195 106.51612562 -118.0703125 139.046875 C-118.82828125 139.76399658 -118.82828125 139.76399658 -119.6015625 140.49560547 C-151.10194125 170.49100819 -173.86913662 215.05181782 -175.24731445 259.0625 C-175.27341926 260.47386473 -175.29360675 261.88534843 -175.30859375 263.296875 C-175.3183876 264.06419952 -175.32818146 264.83152405 -175.33827209 265.62210083 C-175.59085101 290.56344336 -173.28453323 313.33800669 -165.0703125 337.046875 C-164.84649902 337.69881836 -164.62268555 338.35076172 -164.39208984 339.02246094 C-158.32001786 356.29997718 -149.28590639 372.60797598 -138.0703125 387.046875 C-137.41675781 387.91054688 -136.76320313 388.77421875 -136.08984375 389.6640625 C-128.42019467 399.56344462 -119.86457528 409.20790969 -110.0703125 417.046875 C-109.16410156 417.79066406 -108.25789062 418.53445313 -107.32421875 419.30078125 C-75.665969 444.80072593 -39.10236884 457.06564775 0.9296875 461.046875 C4.2296875 461.376875 7.5296875 461.706875 10.9296875 462.046875 C10.9296875 524.416875 10.9296875 586.786875 10.9296875 651.046875 C3.61615329 643.73334079 -3.11686677 636.06788648 -9.62109375 628.03125 C-12.38841848 624.65926261 -15.22174715 621.3501893 -18.0703125 618.046875 C-21.60646159 613.94461002 -25.09894758 609.81885407 -28.5078125 605.609375 C-32.65092241 600.50380035 -36.952617 595.54887447 -41.27319336 590.59399414 C-45.17452891 586.10936649 -48.95516412 581.5420583 -52.6953125 576.921875 C-55.59527125 573.41139861 -58.57789388 569.97854773 -61.5703125 566.546875 C-65.30435693 562.26471396 -68.99489896 557.96356232 -72.5703125 553.546875 C-76.2418048 549.01870116 -80.00886831 544.58219931 -83.8203125 540.171875 C-84.63532227 539.22538086 -84.63532227 539.22538086 -85.46679688 538.25976562 C-86.5126022 537.05445248 -87.56680825 535.85636943 -88.62988281 534.66625977 C-89.85644828 533.28730913 -91.04571665 531.8753298 -92.2265625 530.45703125 C-96.59380326 526.75567473 -101.63334948 524.71231958 -106.8203125 522.359375 C-127.55248723 512.66129787 -146.51430793 500.78626201 -164.0703125 486.046875 C-164.58625977 485.61971191 -165.10220703 485.19254883 -165.63378906 484.75244141 C-177.37886111 475.01452433 -188.42597572 464.76248118 -197.90625 452.765625 C-200.15857487 449.93598942 -202.51634855 447.21895556 -204.8828125 444.484375 C-211.2893126 436.79657487 -216.72219214 428.49375388 -222.0703125 420.046875 C-222.50875488 419.35464844 -222.94719727 418.66242188 -223.39892578 417.94921875 C-244.36833764 384.44979665 -257.56312695 346.29605181 -262.0703125 307.046875 C-262.15650848 306.30254211 -262.24270447 305.55820923 -262.33151245 304.7913208 C-262.98078068 298.7978273 -263.24324544 292.87784968 -263.2734375 286.8515625 C-263.28049713 285.90945419 -263.28755676 284.96734589 -263.29483032 283.99668884 C-263.52181234 244.81084427 -263.52181234 244.81084427 -260.0703125 227.046875 C-259.87695312 226.00756836 -259.68359375 224.96826172 -259.484375 223.89746094 C-248.3637723 165.42848966 -217.68797427 106.35557266 -171.0703125 68.046875 C-170.16667969 67.25539063 -169.26304687 66.46390625 -168.33203125 65.6484375 C-122.80920776 25.85601422 -60.94185498 -0.37526365 0 0 Z " fill="#FF6B35" transform="translate(628.0703125,339.953125)"/>
<path d="M0 0 C0.15057114 55.71294891 0.29560266 111.42590991 0.4332476 167.13889234 C0.44951779 173.7224778 0.46583364 180.30606315 0.48217773 186.88964844 C0.48543066 188.20027273 0.48868358 189.51089702 0.49203508 190.8612372 C0.54475339 212.05794089 0.60116785 233.2546332 0.6589582 254.4513236 C0.71821296 276.21544998 0.77347262 297.9795839 0.82505554 319.74372983 C0.85698704 333.16371947 0.89200164 346.58369368 0.93101191 360.00366464 C0.95749585 369.21732938 0.98008475 378.43099864 0.99967117 387.64468059 C1.0110695 392.9533686 1.02412709 398.26203818 1.04183006 403.57070923 C1.05804475 408.44453356 1.06929591 413.31834483 1.07683109 418.19219008 C1.08037153 419.94220249 1.08563199 421.6922126 1.09292836 423.44221339 C1.12970606 432.50776925 1.00239392 441.54417814 0.56907558 450.60057449 C0.5317339 451.40126847 0.49439222 452.20196245 0.45591897 453.02691989 C-1.35952798 487.29137843 -13.86030895 518.47038736 -38 543 C-38.68191406 543.70640625 -39.36382813 544.4128125 -40.06640625 545.140625 C-57.40620002 561.83569062 -82.06926504 570.90735272 -105.4375 574.75 C-106.12674561 574.86561279 -106.81599121 574.98122559 -107.52612305 575.1003418 C-123.31072428 577.45276002 -139.59626451 577.25234718 -155.51953125 577.5546875 C-156.58648539 577.57562344 -157.65343952 577.59655937 -158.7527256 577.61812973 C-184.78683873 578.11886529 -210.81952779 578.15608795 -236.85762405 578.12857056 C-240.74727706 578.12494427 -244.63692631 578.12336863 -248.52658081 578.12231445 C-298.68826231 578.10548638 -348.84313257 577.68191786 -399 577 C-389.95448898 567.94027865 -380.67888927 559.11924388 -370.66015625 551.13671875 C-367.80080603 548.84000132 -365.03214773 546.4519611 -362.25 544.0625 C-315.71669081 505.32471941 -257.87715268 495.45933176 -199.2164917 492.9876709 C-191.33234662 492.65296235 -183.44926336 492.29332938 -175.56640625 491.9296875 C-174.31689682 491.87217064 -174.31689682 491.87217064 -173.04214478 491.81349182 C-163.53706422 491.37126611 -154.04384239 490.89553161 -144.56640625 490.0234375 C-143.3995504 489.91949173 -143.3995504 489.91949173 -142.2091217 489.81344604 C-123.37113755 487.87966255 -106.17336106 478.80217252 -93.8125 464.4375 C-90.66644908 460.26218551 -88.10313983 455.87362038 -85.6875 451.25 C-85.36177002 450.64341553 -85.03604004 450.03683105 -84.70043945 449.41186523 C-77.69036773 435.25133804 -78.52891084 419.49631678 -78.48828125 404.12890625 C-78.47136408 401.68317305 -78.45320494 399.23744817 -78.43388367 396.79173279 C-78.3865128 390.3507254 -78.35669538 383.90975126 -78.33044434 377.46862793 C-78.30113118 371.08773213 -78.25397517 364.70697262 -78.20898438 358.32617188 C-77.91879984 314.72905424 -77.92438505 271.1355779 -78.25306833 227.53879559 C-78.31106909 219.82686089 -78.36358229 212.11490237 -78.41304016 204.40290833 C-78.42035225 203.26385408 -78.42766434 202.12479984 -78.43519801 200.9512288 C-78.46499491 196.29512604 -78.4946291 191.63902226 -78.52421319 186.98291814 C-78.60753682 173.90789189 -78.69616563 160.83294467 -78.79907227 147.75805664 C-78.88187528 137.23247301 -78.95389216 126.70687793 -79.01323253 116.181135 C-79.04482284 110.64929162 -79.08176977 105.11760563 -79.13199425 99.58589745 C-79.17881052 94.41847901 -79.21131586 89.25116729 -79.2329216 84.08358383 C-79.24332904 82.19617746 -79.25893016 80.30879112 -79.28024101 78.42147636 C-79.45356164 62.64925423 -77.63212431 51.27509912 -67 39 C-59.30201661 32.73132054 -50.8424708 28.25462363 -41.95703125 23.9453125 C-29.27157131 17.77268232 -17.58352943 9.94903305 -5.84082031 2.17993164 C-2.43989241 0 -2.43989241 0 0 0 Z " fill="#014E38" transform="translate(1083,421)"/>
<path d="M0 0 C4.66907236 1.42748709 8.42809329 3.54962855 12.5546875 6.125 C13.40675781 6.64682861 14.25882813 7.16865723 15.13671875 7.70629883 C53.82485982 31.69558285 83.21432339 53.86459687 95.24682617 99.26489258 C95.74077853 101.38752258 95.95656271 103.38488437 96.0546875 105.5625 C96.10367187 106.30371094 96.15265625 107.04492188 96.203125 107.80859375 C95.40477635 111.34158444 93.37167381 112.76584109 90.6796875 115.125 C87.59008789 116.63574219 87.59008789 116.63574219 83.96484375 117.921875 C82.94149681 118.28838165 82.94149681 118.28838165 81.8974762 118.66229248 C69.95138781 122.87540477 57.83098142 126.62447366 45.75268555 130.43701172 C23.93623704 137.33746769 2.5331792 144.89738244 -16.3203125 158.125 C-16.97547852 158.58100586 -17.63064453 159.03701172 -18.30566406 159.50683594 C-31.10999059 168.51499806 -42.30593562 179.04366642 -53.3203125 190.125 C-56.3271305 188.78500502 -58.31793859 187.32654709 -60.5703125 184.9375 C-73.37937928 171.39920417 -89.30415973 160.49203386 -105.3203125 151.125 C-106.04460449 150.69509766 -106.76889648 150.26519531 -107.51513672 149.82226562 C-132.28049183 135.22620776 -159.55462445 124.05400752 -187.6640625 117.89672852 C-193.97232165 116.45614049 -199.57608104 114.74134719 -203.3203125 109.125 C-205.50216839 90.73507175 -192.74654294 68.43400166 -181.921875 54.3359375 C-177.66164904 48.99692801 -173.11372253 43.98798057 -168.3203125 39.125 C-167.56621094 38.35800781 -166.81210937 37.59101562 -166.03515625 36.80078125 C-151.94196788 23.33610557 -134.11194299 14.48610051 -116.98901367 5.56030273 C-115.18927779 4.59235403 -113.42262357 3.56059779 -111.69262695 2.47290039 C-108.33207227 0.56350218 -106.12059824 0.58210204 -102.3203125 1.125 C-97.77274574 4.96716862 -94.83712281 9.64599113 -91.6953125 14.625 C-90.55410311 16.40540815 -89.41212671 18.18532481 -88.26953125 19.96484375 C-87.6461084 20.93921387 -87.02268555 21.91358398 -86.38037109 22.91748047 C-82.865219 28.39058644 -79.31183512 33.83858705 -75.75201416 39.28271484 C-74.53890633 41.13989754 -73.32963736 42.99953724 -72.12060547 44.859375 C-63.65941825 58.23936816 -63.65941825 58.23936816 -53.3203125 70.125 C-41.28514062 55.59753095 -31.25502664 39.63052057 -21.2734375 23.65625 C-20.56167966 22.52416225 -19.84952007 21.39232699 -19.13696289 20.26074219 C-17.74218465 18.0427873 -16.35562503 15.81963781 -14.97827148 13.59082031 C-6.56453494 0.24713543 -6.56453494 0.24713543 0 0 Z " fill="#FF6C36" transform="translate(697.3203125,587.875)"/>
<path d="M0 0 C15.84 0 31.68 0 48 0 C48 61.05 48 122.1 48 185 C32.16 185 16.32 185 0 185 C-0.33 181.37 -0.66 177.74 -1 174 C-1.59425781 174.51949219 -2.18851563 175.03898437 -2.80078125 175.57421875 C-14.60946756 185.50967644 -26.61243527 189.45188749 -41.9375 188.84375 C-54.10446661 187.54726995 -64.24966104 183.31743288 -74 176 C-74.82628906 175.38511719 -75.65257812 174.77023437 -76.50390625 174.13671875 C-88.39479115 163.95782354 -94.26765117 148.15805229 -96 133 C-97.14665954 111.2112465 -94.46456956 92.43804519 -80.37890625 74.9921875 C-70.78976194 64.73617224 -56.05432896 57.32742704 -41.9609375 56.796875 C-25.7849423 56.51855558 -13.88103429 59.69517257 -1 70 C-0.67 46.9 -0.34 23.8 0 0 Z M-42.625 105.90234375 C-45.8039731 110.75208397 -46.35859559 115.09597826 -46.3125 120.8125 C-46.30758545 121.52446533 -46.3026709 122.23643066 -46.29760742 122.9699707 C-46.14361947 129.8646827 -45.20181476 134.38162569 -40.6875 139.75 C-32.88549842 146.2819083 -27.04465699 147.88178287 -17 147 C-10.32339438 145.23530794 -5.82602819 140.57476684 -2 135 C1.20325177 127.89713738 1.32025878 118.04759025 -1.125 110.625 C-3.95199365 104.44990789 -7.60654025 100.30675657 -13.875 97.5625 C-25.14753027 93.67600076 -34.99597493 96.67782546 -42.625 105.90234375 Z " fill="#014E38" transform="translate(801,1120)"/>
<path d="M0 0 C11.86635392 9.95890278 19.38300142 24.08272054 22.55859375 39.125 C22.88859375 43.745 23.21859375 48.365 23.55859375 53.125 C7.38859375 53.125 -8.78140625 53.125 -25.44140625 53.125 C-26.10140625 48.835 -26.76140625 44.545 -27.44140625 40.125 C-30.86126704 31.76534029 -33.76415605 27.89316849 -41.50390625 23.3125 C-48.3210347 20.68238836 -56.69207567 21.0291492 -63.37890625 23.8125 C-72.70389906 28.317417 -76.83603846 35.82315111 -80.44140625 45.125 C-86.83941383 64.36407912 -85.97422548 90.30070897 -77.25390625 108.625 C-73.12834897 116.29541638 -68.05254495 122.01892205 -59.5703125 124.69140625 C-52.25018876 126.18229384 -45.15876823 125.4369399 -38.44140625 122.125 C-29.30759439 114.85946784 -26.83759991 105.29454929 -25.44140625 94.125 C-9.27140625 94.125 6.89859375 94.125 23.55859375 94.125 C21.99764715 115.97825235 15.39390134 132.01246578 -0.44140625 147.125 C-17.33102459 161.29048635 -39.03150923 164.90847039 -60.44140625 163.9375 C-77.59475917 162.35861183 -93.45891706 156.7678327 -106.44140625 145.125 C-107.58029297 144.10792969 -107.58029297 144.10792969 -108.7421875 143.0703125 C-127.12730725 125.70487166 -133.35222805 100.9782242 -134.62890625 76.53515625 C-135.09503551 51.10197872 -128.80820102 26.97266727 -112.44140625 7.125 C-111.66603516 6.17947266 -111.66603516 6.17947266 -110.875 5.21484375 C-83.32319864 -25.09904296 -30.6482543 -23.5378593 0 0 Z " fill="#014E38" transform="translate(134.44140625,1144.875)"/>
<path d="M0 0 C10.27158841 9.158833 13.87801395 22.70309521 14.875 35.875 C15.00906105 39.28117485 15.03184974 42.68273789 15.03613281 46.09130859 C15.04358017 47.54225166 15.04358017 47.54225166 15.05117798 49.02250671 C15.06565939 52.18949114 15.07257672 55.35642555 15.078125 58.5234375 C15.08236607 60.1586479 15.08236607 60.1586479 15.08669281 61.82689285 C15.10162564 67.59195442 15.11089336 73.35699134 15.11523438 79.12207031 C15.1207214 85.04856428 15.14477154 90.97482881 15.17320633 96.90125084 C15.1919033 101.48599901 15.19704199 106.07069255 15.19857025 110.65547562 C15.20157953 112.83936446 15.2095491 115.02325274 15.22275543 117.20710373 C15.32082155 134.66407085 14.80305583 150.65312472 1.875 163.875 C-9.99739507 173.12712037 -21.27699436 175.71603019 -36.125 174.875 C-46.78291807 173.04339568 -57.1569027 167.19630335 -63.8125 158.625 C-69.05611739 150.63943107 -69.71887396 142.09156971 -70.25 132.75 C-70.36021484 131.09677734 -70.36021484 131.09677734 -70.47265625 129.41015625 C-70.7185528 125.56640488 -70.92647645 121.72140702 -71.125 117.875 C-71.1687677 117.05952698 -71.2125354 116.24405396 -71.25762939 115.40386963 C-72.0310296 100.74178711 -72.28266781 86.11112199 -72.25537109 71.4296875 C-72.24997138 67.98172683 -72.2553788 64.53389448 -72.26171875 61.0859375 C-72.27818249 14.50459605 -72.27818249 14.50459605 -60.37890625 0.875 C-43.27199235 -15.62730363 -18.1385435 -12.33420958 0 0 Z " fill="#FF6A34" transform="translate(434.125,11.125)"/>
<path d="M0 0 C1.21486267 1.03110193 2.40434025 2.09309217 3.5625 3.1875 C4.10390625 3.67734375 4.6453125 4.1671875 5.203125 4.671875 C12.96828696 12.59390892 15.56270833 24.48802778 16.11669922 35.20996094 C16.15880964 36.00313595 16.20092007 36.79631096 16.24430656 37.61352158 C16.68800998 46.68416932 16.70743317 55.74866745 16.6953125 64.828125 C16.69598894 66.65216078 16.69696178 68.47619646 16.69821167 70.30023193 C16.69967117 74.08850987 16.69759017 77.87676394 16.69287109 81.66503906 C16.68715842 86.48123181 16.69047375 91.29736898 16.69644356 96.11355972 C16.70008283 99.8679851 16.6988955 103.62239763 16.69631577 107.37682343 C16.69565663 109.15154782 16.69643873 110.92627345 16.69879532 112.7009964 C16.73932534 151.75899004 16.73932534 151.75899004 3.5625 166.1875 C-5.41359671 174.1960241 -17.05084117 178.62856219 -29.109375 178.3984375 C-40.50412523 177.36602724 -50.85867283 172.81105247 -58.76953125 164.44921875 C-65.11101753 155.85034157 -68.44403536 146.76624102 -68.99169922 136.17651367 C-69.03380964 135.38362788 -69.07592007 134.59074209 -69.11930656 133.77382946 C-69.5659904 124.63803296 -69.58238616 115.5079293 -69.5703125 106.36328125 C-69.57098896 104.51922086 -69.5719618 102.67516056 -69.57321167 100.83110046 C-69.57467149 96.99994035 -69.57258933 93.16880382 -69.56787109 89.33764648 C-69.56216266 84.46998635 -69.56547089 79.60238124 -69.57144356 74.73472309 C-69.57508555 70.93822324 -69.57389421 67.14173609 -69.57131577 63.34523582 C-69.57065716 61.55180034 -69.57143679 59.75836363 -69.57379532 57.96492958 C-69.61472617 18.13217174 -69.61472617 18.13217174 -58.4375 5.1875 C-43.6025883 -9.16335508 -17.18857991 -12.0968685 0 0 Z " fill="#FF6A34" transform="translate(895.4375,7.8125)"/>
<path d="M0 0 C1.09280273 0.00491455 2.18560547 0.0098291 3.31152344 0.01489258 C21.88734165 0.28210153 41.13908663 4.40552286 55.1328125 17.48046875 C65.24874669 28.32430226 67.09733746 38.79439193 67.15625 53.25 C67.16992164 54.61654789 67.18471318 55.98308499 67.20056152 57.34960938 C67.24853287 61.67050781 67.28153985 65.99145071 67.3125 70.3125 C67.34849176 75.29994952 67.39102141 80.28719207 67.44844055 85.27444458 C67.46808055 87.24532096 67.47660702 89.21629841 67.48474121 91.18725586 C67.63102371 104.68302451 68.15787785 116.83056678 75.8125 128.3125 C69.05000813 128.43923206 62.28782217 128.52682235 55.52441406 128.5871582 C53.2235164 128.61230906 50.92269868 128.64643396 48.62207031 128.68969727 C45.31555467 128.75032147 42.01009479 128.77870441 38.703125 128.80078125 C37.1591806 128.83949089 37.1591806 128.83949089 35.58404541 128.87898254 C28.43414812 128.88179321 28.43414812 128.88179321 25.24121094 125.95776367 C24.76973633 125.08482666 24.29826172 124.21188965 23.8125 123.3125 C23.235 122.384375 22.6575 121.45625 22.0625 120.5 C21.65 119.778125 21.2375 119.05625 20.8125 118.3125 C20.13445312 118.77140625 19.45640625 119.2303125 18.7578125 119.703125 C6.36025504 127.87658394 -5.15263806 131.71408417 -20 131.625 C-21.4535791 131.61762817 -21.4535791 131.61762817 -22.93652344 131.61010742 C-36.15001312 131.39401966 -48.70411975 128.13064457 -58.65625 118.9765625 C-66.3014166 110.66829472 -67.7769974 101.36237284 -67.5 90.33203125 C-67.06467323 82.63581672 -64.43364708 75.5425362 -59.0625 69.9296875 C-42.47901344 55.62643034 -20.84757371 53.44247511 0.01464844 51.00756836 C2.03392431 50.76979648 4.05208977 50.52387056 6.0703125 50.27734375 C7.2473877 50.1393335 8.42446289 50.00132324 9.63720703 49.85913086 C12.61974869 49.34568239 15.06413892 48.55497614 17.8125 47.3125 C17.93463894 44.97101769 17.93463894 44.97101769 16.8125 42.3125 C12.15332312 37.81527312 6.87767574 36.54017472 0.55859375 36.2421875 C-4.91564694 36.38235298 -9.3606168 37.26301391 -14.125 40 C-16.85324795 42.72144956 -16.85324795 42.72144956 -18.1875 49.3125 C-34.0275 49.3125 -49.8675 49.3125 -66.1875 49.3125 C-64.91256947 34.01333369 -61.92420211 24.49995744 -50.1875 14.3125 C-35.60812294 3.58718788 -17.80193061 -0.09539711 0 0 Z M3.125 80.125 C1.36639648 80.3734668 1.36639648 80.3734668 -0.42773438 80.62695312 C-6.43835192 81.52633971 -11.82185804 82.38372223 -17.1875 85.3125 C-18.99422897 87.57743879 -18.99422897 87.57743879 -19.1875 90.3125 C-18.3956584 93.13358941 -18.3956584 93.13358941 -16.1875 95.3125 C-9.68320489 98.23279576 -3.08965823 97.7304354 3.5 95.3359375 C10.15537868 92.26574793 15.12716974 88.39200704 17.8125 81.3125 C17.8125 80.3225 17.8125 79.3325 17.8125 78.3125 C12.90770717 78.3125 7.96656113 79.40491925 3.125 80.125 Z " fill="#014E38" transform="translate(239.1875,1176.6875)"/>
<path d="M0 0 C13.37378338 11.53816605 19.73037804 24.57938742 23.02734375 41.796875 C23.02734375 49.386875 23.02734375 56.976875 23.02734375 64.796875 C-7.99265625 64.796875 -39.01265625 64.796875 -70.97265625 64.796875 C-69.32265625 67.766875 -67.67265625 70.736875 -65.97265625 73.796875 C-65.64265625 74.786875 -65.31265625 75.776875 -64.97265625 76.796875 C-62.67731367 77.93233062 -62.67731367 77.93233062 -59.97265625 78.796875 C-59.20824219 79.13074219 -58.44382812 79.46460938 -57.65625 79.80859375 C-49.76358329 82.715209 -40.91520598 82.28894106 -32.97265625 79.796875 C-29.35666684 78.06421341 -28.21569604 77.16143468 -25.97265625 73.796875 C-23.90988159 73.43611145 -23.90988159 73.43611145 -21.33935547 73.45629883 C-19.89808792 73.45663872 -19.89808792 73.45663872 -18.42770386 73.45698547 C-17.38808502 73.47246933 -16.34846619 73.48795319 -15.27734375 73.50390625 C-14.21476349 73.50815109 -13.15218323 73.51239594 -12.05740356 73.51676941 C-8.65389979 73.53360111 -5.25098192 73.57126197 -1.84765625 73.609375 C0.45572063 73.62441601 2.75910677 73.63810542 5.0625 73.65039062 C10.7176488 73.68351926 16.37245443 73.73376303 22.02734375 73.796875 C21.72257522 75.40492957 21.41317336 77.01210648 21.10180664 78.61889648 C20.8441024 79.96152809 20.8441024 79.96152809 20.58119202 81.33128357 C18.34809654 91.27245591 9.98840082 99.32664063 1.93359375 104.9609375 C-20.27268037 118.55973381 -48.31717405 120.76739514 -73.359375 115.01953125 C-90.22280443 110.27987014 -104.00888556 100.99631226 -112.97265625 85.796875 C-122.09801231 69.1126409 -123.75093082 49.45952498 -118.74121094 31.18798828 C-113.91368869 15.16341061 -103.36374307 2.46770138 -88.8359375 -5.82421875 C-61.27037163 -19.09931391 -25.03681464 -18.55553674 0 0 Z M-66.46484375 26.90625 C-68.60531146 29.41877269 -68.60531146 29.41877269 -70.97265625 35.796875 C-56.12265625 35.796875 -41.27265625 35.796875 -25.97265625 35.796875 C-27.11663203 30.07699611 -28.82838844 27.69055918 -32.97265625 23.796875 C-44.04640024 17.01703174 -56.749434 18.73967369 -66.46484375 26.90625 Z " fill="#014F38" transform="translate(514.97265625,1191.203125)"/>
<path d="M0 0 C1.52789541 1.34393476 3.02964564 2.7183433 4.5 4.125 C5.19351562 4.76695313 5.88703125 5.40890625 6.6015625 6.0703125 C23.00504146 22.72712704 22.5 42.26715047 22.5 65.125 C-8.19 65.125 -38.88 65.125 -70.5 65.125 C-65.48336643 75.78725501 -65.48336643 75.78725501 -56.25 80.8984375 C-46.94458828 83.19496539 -37.10202335 82.34781146 -28.5 78.125 C-28.03200485 77.43956116 -27.5640097 76.75412231 -27.08183289 76.0479126 C-25.5 74.125 -25.5 74.125 -23.31697083 73.64398193 C-22.47091782 73.65286438 -21.62486481 73.66174683 -20.75317383 73.67089844 C-19.79240433 73.67120056 -18.83163483 73.67150269 -17.8417511 73.67181396 C-16.80729355 73.69245911 -15.772836 73.71310425 -14.70703125 73.734375 C-13.64586594 73.74003479 -12.58470062 73.74569458 -11.49137878 73.75152588 C-8.09796265 73.77393857 -4.70559765 73.82414551 -1.3125 73.875 C0.98631289 73.8950586 3.28514231 73.91331048 5.58398438 73.9296875 C11.22301564 73.9738193 16.86143273 74.04078028 22.5 74.125 C22.07454726 76.01937237 21.63569424 77.91073763 21.19140625 79.80078125 C20.94849854 80.85434814 20.70559082 81.90791504 20.45532227 82.9934082 C17.28978921 93.37017604 8.27916393 101.62289587 -0.76171875 107.1015625 C-23.27333021 118.94977906 -52.21615612 121.96963094 -76.6875 114.4375 C-94.11243714 107.97683318 -107.19895498 97.92711523 -115.5 81.125 C-123.11827729 62.46799439 -122.97910004 40.77067243 -115.28515625 22.19140625 C-107.86836263 7.03534972 -94.14468102 -4.07751603 -78.5 -9.875 C-53.11518509 -17.5095308 -21.75965438 -16.66909304 0 0 Z M-67.125 28.11328125 C-68.96637822 30.60995994 -68.96637822 30.60995994 -70.5 36.125 C-55.65 36.125 -40.8 36.125 -25.5 36.125 C-26.6389627 30.43018652 -28.28089242 27.93824264 -32.5 24.125 C-43.69912781 17.33168291 -58.06973598 18.77504023 -67.125 28.11328125 Z " fill="#014E38" transform="translate(1257.5,1190.875)"/>
<path d="M0 0 C16.17 0 32.34 0 49 0 C49.04898438 5.176875 49.09796875 10.35375 49.1484375 15.6875 C49.18384587 18.97788348 49.21981843 22.26824159 49.2578125 25.55859375 C49.31799197 30.77486434 49.37614382 35.99109965 49.421875 41.20751953 C49.45889835 45.41569991 49.50530333 49.6236841 49.55806351 53.83169556 C49.57651726 55.43271423 49.59165807 57.03377481 49.60334396 58.63485718 C49.62036203 60.88698176 49.64943192 63.1386658 49.68115234 65.390625 C49.69447601 66.66969727 49.70779968 67.94876953 49.7215271 69.26660156 C50.20116826 75.69699946 51.20578225 81.3427599 56 86 C60.07708129 88.37829742 64.38638038 88.66395264 69 88 C74.80256465 86.30847746 77.95645779 83.44097193 80.9921875 78.29296875 C83.37785349 72.86511628 84.25389426 67.77127131 84.31884766 61.87133789 C84.32889328 61.19731934 84.3389389 60.52330078 84.34928894 59.82885742 C84.37989249 57.62679813 84.39709154 55.42485908 84.4140625 53.22265625 C84.4327926 51.6856535 84.45236737 50.14866083 84.4727478 48.61167908 C84.52388063 44.58570321 84.56360663 40.55969408 84.60089111 36.53356934 C84.64812246 31.69253599 84.70963884 26.85166529 84.76873779 22.01076508 C84.85672007 14.67390972 84.92664848 7.33708189 85 0 C101.17 0 117.34 0 134 0 C134 41.58 134 83.16 134 126 C117.83 126 101.66 126 85 126 C84.67 121.38 84.34 116.76 84 112 C82.68 113.65 81.36 115.3 80 117 C67.68770682 127.72864678 52.81880881 129.84408664 37 129 C26.40086535 127.61033568 17.2528581 124.21840358 10.1875 115.9375 C-0.8876836 100.26507038 -0.30833259 80.85362908 -0.1953125 62.5 C-0.19157085 60.68440916 -0.18872935 58.86881626 -0.18673706 57.05322266 C-0.17919113 52.33184997 -0.15962318 47.61060522 -0.1373291 42.88928223 C-0.11302544 37.19380333 -0.10404654 31.49828107 -0.09242249 25.80276489 C-0.07319124 17.20175496 -0.0348063 8.60102436 0 0 Z " fill="#014E38" transform="translate(871,1179)"/>
<path d="M0 0 C11.19448554 9.54477188 15.25621888 21.99054678 16.625 36.3125 C16.75087445 39.21744661 16.75217013 42.11613374 16.73852539 45.0234375 C16.73867142 45.85365921 16.73881744 46.68388092 16.7389679 47.53926086 C16.73827695 50.25536812 16.73052322 52.97140488 16.72265625 55.6875 C16.72078916 57.58178673 16.71936663 59.47607394 16.71836853 61.37036133 C16.71456626 66.33511712 16.70475571 71.29984326 16.69366455 76.2645874 C16.68159372 82.23271573 16.67703728 88.20085402 16.67121124 94.16899109 C16.66154259 103.21684796 16.64237004 112.26463988 16.625 121.3125 C0.455 121.3125 -15.715 121.3125 -32.375 121.3125 C-32.42398438 116.12402344 -32.47296875 110.93554688 -32.5234375 105.58984375 C-32.5588399 102.29490285 -32.59480906 98.99998754 -32.6328125 95.70507812 C-32.69302545 90.47993714 -32.75118525 85.25483181 -32.796875 80.02954102 C-32.83385948 75.81488075 -32.88025451 71.60041784 -32.93306351 67.3859272 C-32.95153772 65.78129108 -32.96667119 64.17661277 -32.97834396 62.57191277 C-32.9953265 60.31718793 -33.0243888 58.06290822 -33.05615234 55.80834961 C-33.06947601 54.52705673 -33.08279968 53.24576385 -33.0965271 51.92564392 C-33.50252955 46.65782327 -34.30278945 42.61653986 -37.6875 38.5 C-42.34447888 34.7094358 -46.13455468 33.90525479 -52.03125 34.0625 C-57.07505957 34.60050635 -60.98678688 35.99932543 -64.6875 39.5 C-69.9578998 48.28399967 -69.84661845 56.66616174 -69.88671875 66.625 C-69.90358525 68.20541766 -69.92173811 69.78582207 -69.94111633 71.36621094 C-69.98840889 75.50233823 -70.01835182 79.63841176 -70.04455566 83.77471924 C-70.07973618 88.75012953 -70.1366893 93.72533349 -70.18994904 98.70057678 C-70.26821952 106.23785751 -70.3190084 113.77487266 -70.375 121.3125 C-86.545 121.3125 -102.715 121.3125 -119.375 121.3125 C-119.375 79.7325 -119.375 38.1525 -119.375 -4.6875 C-103.205 -4.6875 -87.035 -4.6875 -70.375 -4.6875 C-69.88 3.7275 -69.88 3.7275 -69.375 12.3125 C-68.611875 11.301875 -67.84875 10.29125 -67.0625 9.25 C-51.82773703 -8.45817154 -19.44393423 -13.2959474 0 0 Z " fill="#014E38" transform="translate(673.375,1183.6875)"/>
<path d="M0 0 C1.57740614 1.50536712 3.14159386 3.02480221 4.6875 4.5625 C5.51701172 5.33980469 5.51701172 5.33980469 6.36328125 6.1328125 C16.87058622 16.95165481 21.60221985 33.42205071 22.0625 48.0625 C21.53702157 66.86548887 14.48851713 82.72547948 1.34375 95.9140625 C-13.36028591 108.60854683 -31.90342325 112.7860022 -50.88964844 111.76953125 C-68.9652844 110.22497872 -83.94337271 100.59916004 -95.44140625 87.0546875 C-107.12921719 71.35313586 -109.55693297 52.42422991 -107.02392578 33.39453125 C-103.8336332 17.32744701 -93.5158217 3.6052801 -80.3125 -5.58203125 C-55.12302294 -21.16146042 -22.61506475 -19.79238208 0 0 Z M-17.62850952 18.51774597 C-18.36131134 19.25720963 -19.09411316 19.99667328 -19.84912109 20.75854492 C-21.10974869 22.01951241 -21.10974869 22.01951241 -22.39584351 23.30595398 C-23.28357452 24.20916885 -24.17130554 25.11238373 -25.0859375 26.04296875 C-26.4715538 27.43495232 -26.4715538 27.43495232 -27.88516235 28.85505676 C-30.32818925 31.30947944 -32.76206766 33.77277916 -35.1940918 36.23809814 C-37.68248032 38.75730168 -40.17949715 41.26792122 -42.67578125 43.77929688 C-47.56312142 48.69870808 -52.44084151 53.62756017 -57.3125 58.5625 C-62.1275602 56.38303135 -65.21850179 52.66791236 -68.71484375 48.81835938 C-71.3224109 46.08074731 -72.81873723 44.7070891 -76.52734375 43.62109375 C-80.10298899 43.5458698 -81.54805443 44.32105765 -84.3125 46.5625 C-86.52760888 49.29446762 -87.28104888 50.85484978 -87.4375 54.375 C-85.75178898 59.15118121 -82.81718942 61.96442544 -79.3125 65.5625 C-78.75594727 66.15401855 -78.19939453 66.74553711 -77.62597656 67.35498047 C-75.70342002 69.39763398 -73.76062486 71.41923498 -71.8125 73.4375 C-70.86963135 74.43801392 -70.86963135 74.43801392 -69.90771484 75.45874023 C-66.03437671 79.39809545 -63.02834043 81.94634289 -57.3125 82.5625 C-52.62685954 80.66600516 -49.51139456 78.13236969 -45.96557617 74.57202148 C-45.46887421 74.07736389 -44.97217224 73.5827063 -44.4604187 73.07305908 C-42.83475943 71.45038692 -41.22004705 69.8172858 -39.60546875 68.18359375 C-38.47359198 67.04865661 -37.34112109 65.91431171 -36.20808411 64.78053284 C-33.84252877 62.41038803 -31.48195359 60.0354344 -29.12524414 57.65649414 C-26.1012196 54.6040913 -23.06849524 51.56052242 -20.03248119 48.5200491 C-17.69775274 46.18117035 -15.36586906 43.83947401 -13.03502846 41.49672127 C-11.91710382 40.37309385 -10.79870584 39.24993718 -9.67983055 38.12725639 C-8.1213925 36.56196343 -6.56639376 34.9933383 -5.01245117 33.42358398 C-4.12675949 32.5310643 -3.24106781 31.63854462 -2.32853699 30.71897888 C0.25602336 27.95437196 0.64003004 27.06568157 1 23.25 C0.63299371 18.91932574 -0.09472601 17.44156094 -3.3125 14.5625 C-9.17034463 12.52498883 -13.05866733 14.65974562 -17.62850952 18.51774597 Z " fill="#056D51" transform="translate(684.3125,473.4375)"/>
<path d="M0 0 C15.51 0 31.02 0 47 0 C47 61.38 47 122.76 47 186 C31.49 186 15.98 186 0 186 C0 124.62 0 63.24 0 0 Z " fill="#014F39" transform="translate(330,1120)"/>
<path d="M0 0 C0.76376953 -0.00773437 1.52753906 -0.01546875 2.31445312 -0.0234375 C3.06791016 -0.02085938 3.82136719 -0.01828125 4.59765625 -0.015625 C5.59744507 -0.01224121 5.59744507 -0.01224121 6.61743164 -0.00878906 C9.84627579 0.35136824 12.83638944 1.30548028 15.9375 2.25 C15.10475796 7.89219792 14.26849552 13.53385847 13.42895508 19.17504883 C13.14380434 21.09450118 12.85961898 23.0140972 12.57641602 24.93383789 C12.16936427 27.69195209 11.75885245 30.44953229 11.34765625 33.20703125 C11.22157486 34.06649857 11.09549347 34.92596588 10.96559143 35.81147766 C10.84554245 36.61208115 10.72549347 37.41268463 10.60180664 38.23754883 C10.4974379 38.9414827 10.39306915 39.64541656 10.28553772 40.37068176 C9.9375 42.25 9.9375 42.25 8.9375 45.25 C7.93460938 44.92644531 6.93171875 44.60289063 5.8984375 44.26953125 C-2.95215901 41.75318518 -13.78982075 41.96112725 -22.0625 46.25 C-24.90850677 48.30787515 -24.90850677 48.30787515 -27.0625 50.25 C-27.7225 50.25 -28.3825 50.25 -29.0625 50.25 C-29.495625 51.12591797 -29.495625 51.12591797 -29.9375 52.01953125 C-30.62468384 53.38196865 -31.32899707 54.73614896 -32.0625 56.07421875 C-32.3925 56.68910156 -32.7225 57.30398438 -33.0625 57.9375 C-33.3925 58.53949219 -33.7225 59.14148437 -34.0625 59.76171875 C-37.31400076 67.85236713 -37.39385669 76.00321015 -37.4765625 84.59765625 C-37.49592865 85.85009628 -37.5152948 87.10253632 -37.5352478 88.39292908 C-37.58461537 91.69225072 -37.62600188 94.99154074 -37.66339111 98.29101562 C-37.70369023 101.67001963 -37.75456155 105.04886422 -37.8046875 108.42773438 C-37.90194392 115.0350927 -37.98178922 121.64233627 -38.0625 128.25 C-53.9025 128.25 -69.7425 128.25 -86.0625 128.25 C-86.0625 86.67 -86.0625 45.09 -86.0625 2.25 C-70.2225 2.25 -54.3825 2.25 -38.0625 2.25 C-36.25134044 4.06115956 -36.68050552 6.86278227 -36.5 9.3125 C-36.41621094 10.41722656 -36.33242187 11.52195312 -36.24609375 12.66015625 C-36.18550781 13.51480469 -36.12492187 14.36945313 -36.0625 15.25 C-35.69640625 14.81429688 -35.3303125 14.37859375 -34.953125 13.9296875 C-25.77226814 3.83074496 -13.33388945 -0.13571389 0 0 Z " fill="#014F38" transform="translate(1112.0625,1176.75)"/>
<path d="M0 0 C0.66 0.33 1.32 0.66 2 1 C-1.96 4.96 -5.92 8.92 -10 13 C-10.66 12.67 -11.32 12.34 -12 12 C-8.27653164 7.57905197 -4.70478962 3.42166518 0 0 Z " fill="#3D8E78" transform="translate(601,470)"/>
</svg>
