<?xml version="1.0" encoding="utf-8"?>
<!-- Generator: Adobe Illustrator 26.2.1, SVG Export Plug-In . SVG Version: 6.00 Build 0)  -->
<svg version="1.1" id="Layer_1" xmlns="http://www.w3.org/2000/svg" xmlns:xlink="http://www.w3.org/1999/xlink" x="0px" y="0px"
	 viewBox="0 0 1930 597.9" style="enable-background:new 0 0 1930 597.9;" xml:space="preserve">
<style type="text/css">
	.st0{fill:#024F39;}
	.st1{fill:#FF6B35;}
	.st2{fill:#FFFFFF;}
	.st3{fill:#006A4E;}
	.st4{fill-rule:evenodd;clip-rule:evenodd;fill:#FFFFFF;}
</style>
<g>
	<path class="st0" d="M63.4,247.4c-15.6-8.9-29.2-16.5-42.6-24.7c-2.1-1.3-3.9-5.1-3.9-7.8c0-30.9-0.3-61.9,0.9-92.7
		c1.5-37.8,35.8-64.9,77.9-62.5c0.9,11.6,1.6,23.3,2.7,35c1.9,21.3,21.7,37.8,43.7,36.8c23.6-1.2,41.2-18.3,41.4-40.2
		c0.1-10.1,0-20.3,0-31h183c0.8,11.4,1.3,22.7,2.4,34.1c1.9,21.3,20.5,36.4,44,36.1c21.7-0.3,39.8-16.4,41.1-37.1
		c0.7-10.8,0.1-21.6,0.1-32.3c40.8-7.7,78.2,21.8,80.5,58.8c1.9,30.8,0.9,61.8,0.9,92.7c0,2.4-1.6,5.7-3.5,6.9
		c-12.1,7.7-24.5,15-38,23.1c-0.3-6.4-0.1-11.9-1-17.1c-4.2-23.5-22.7-37.9-49-37.9c-73.7,0-147.3,0.2-221,0.2
		c-38.2,0-76.3-0.2-114.5,0c-24.2,0.1-41.1,12.4-44.8,33.1C62.2,228.7,63.4,237.2,63.4,247.4z"/>
	<path class="st1" d="M62.9,337.3c0,5.8,0,10.6,0,15.3c0,47.4-0.3,94.7,0,142.1c0.2,25.8,14.6,41,40.1,42.5c16.7,1,33.5,1,50.3,1.5
		c31.1,0.9,74,22.6,93.6,48c-2.9,0.2-5.4,0.5-7.8,0.5c-46.7,0-93.4,0.3-140.1,0c-39.7-0.2-70.4-22.7-79.8-58.8
		c-2.4-9.4-2.9-19.5-2.9-29.2c-0.3-81.2,0.6-203,0.6-284.3c0-0.6,0.3-1.2,0.8-2.7c14.3,8.2,28.1,15.7,41.5,24c2.5,1.6,5,6.4,4.5,9.2
		"/>
	<path class="st0" d="M491.6,297.6c-3.4-15.9,3.2-25.6,17.8-31.9c8.9-3.9,16.8-10,26.9-16.1c0,9.6,0,17.9,0,26.2
		c0.1,77,0.2,153.9,0.4,230.9c0.1,47.2-27.5,78.2-74.8,79.7c-51.8,1.6-103.7,0.4-158.1,0.4c9.3-8,16.9-15.3,25.3-21.5
		c23.6-17.6,50.7-25.3,79.9-26.2c14.4-0.5,28.9-1.1,43.3-2.1c21.7-1.6,38.9-18.8,39.1-40.7c0.5-52.6,0.2-105.2,0.2-159.5"/>
	<path class="st1" d="M165.3,59.5c0,9.5,0.1,19.1,0,28.6c-0.2,12.1-9.6,22-22,23.5c-12,1.5-25.4-6.7-26.2-18.5
		c-1.6-22.2-2.4-44.6-1.2-66.7c0.9-15.2,12.5-23.3,26.1-22.2c13.7,1.1,23,11.6,23.3,26.8C165.4,40.5,165.2,50,165.3,59.5
		C165.2,59.5,165.2,59.5,165.3,59.5z"/>
	<path class="st1" d="M436,57.1c0,10.2,0.4,20.4-0.1,30.6c-0.6,13.4-11,23.3-24.2,23.9c-12.4,0.5-24.2-9.9-24.6-23.2
		c-0.6-20-0.8-40.1-0.1-60.1c0.5-15.8,10.8-24.6,26.2-24.1c13.8,0.4,22.4,9.9,22.8,25.4C436.2,38.7,436,47.9,436,57.1
		C436,57.1,436,57.1,436,57.1z"/>
</g>
<g>
	<g>
		<path class="st0" d="M774.6,249.1c0,8.1-1.5,16.2-4.6,24.4c-3.1,8.2-7.8,15.7-14,22.6c-6.3,6.9-14.2,12.4-23.9,16.6
			c-9.6,4.2-21.1,6.3-34.3,6.3c-17.4,0-32.2-3.9-44.6-11.7s-21.8-18.6-28.3-32.3c-6.5-13.8-9.8-29.6-9.8-47.6s3.3-33.9,9.8-47.6
			c6.5-13.7,16-24.5,28.3-32.2c12.4-7.8,27.2-11.6,44.6-11.6c14.4,0,26.7,2.4,36.9,7.3c10.2,4.9,18.4,11.3,24.6,19.2
			c6.2,7.9,10.5,16.4,12.9,25.4c1.6,6.2,2.4,12.1,2.4,17.9H726c0-2.6-0.2-4.8-0.5-6.7c-0.7-5.2-2.3-9.7-4.7-13.6
			c-2.4-3.8-5.5-6.8-9.4-8.9c-3.9-2.1-8.4-3.2-13.6-3.2c-6.2,0-11.9,1.8-16.9,5.5c-5,3.7-9.1,9.5-12.1,17.4s-4.5,18.3-4.5,31.1
			c0,12.7,1.5,23.1,4.5,31.1c3,8,7,13.9,12.1,17.6c5,3.8,10.7,5.6,16.9,5.6c4.5,0,8.5-0.8,11.9-2.5c3.5-1.6,6.4-3.9,8.8-6.9
			c2.4-3,4.2-6.4,5.5-10.4c1.3-4,1.9-8.3,1.9-12.9H774.6z"/>
		<path class="st0" d="M837.4,318.8c-9.1,0-17.3-1.5-24.5-4.4c-7.2-2.9-12.9-7.2-17-12.7c-4.2-5.6-6.2-12.3-6.2-20.3
			c0-9.4,2.7-17,8.1-22.8c5.4-5.8,12.3-10.1,20.8-13.1c8.4-3,17.2-4.8,26.2-5.6c12.9-1.2,21.6-2.2,26-3.1c4.5-0.9,6.7-2.4,6.7-4.7
			v-0.1c0-3-1.8-5.5-5.3-7.6c-3.6-2.1-8.3-3.2-14.2-3.2c-6.4,0-11.2,1.2-14.3,3.5c-3.1,2.4-4.7,5.8-4.7,10.3h-47.6
			c0-10.7,3-19.7,9-27c6-7.3,14.1-12.8,24.2-16.5c10.1-3.7,21.4-5.6,33.8-5.6c11.8,0,22.8,1.8,33.1,5.3c10.3,3.5,18.6,8.9,25,16.1
			c6.4,7.2,9.6,16.5,9.6,27.8c0,1.7,0,3.4,0,5s0,3.4,0,5v39.5c0,3.5,0.1,6.9,0.2,10.2c0.2,3.3,0.6,6.3,1.4,9.1c0.9,3,2,5.5,3.5,7.6
			c1.4,2.1,2.6,3.6,3.5,4.4h-47.3c-0.7-0.7-1.8-2-3.1-4c-1.4-1.9-2.5-4.1-3.4-6.6c-1.2-3.6-2.1-7-2.6-10.1c-0.5-3.2-0.8-7-0.8-11.6
			L888,291c-2.2,5.8-5.8,10.8-11,15c-5.2,4.2-11.2,7.3-18.1,9.5C852,317.7,844.8,318.8,837.4,318.8z M851.8,284.5
			c4.2,0,8.3-0.9,12.3-2.8c4-1.8,7.4-4.9,10.1-9.2c2.7-4.3,4.1-10.1,4.1-17.5v-4.6l12.4,10c-5.3,1.8-11.2,3.4-17.6,4.6
			c-6.5,1.2-12.7,2.2-18.6,2.8c-5.5,0.6-9.6,1.5-12.3,2.7c-2.7,1.2-4,3.2-4,5.9c0,2.7,1.2,4.7,3.6,6
			C844.1,283.8,847.4,284.5,851.8,284.5z"/>
		<path class="st0" d="M998.2,128.4v187.6h-47.6V128.4H998.2z"/>
		<path class="st0" d="M1042.2,265.4v-28.8h75.1l-3.6,6.2c0-0.6,0-1.3,0-2.1c0-0.8,0-1.4,0-2c0-2.7-0.8-5.5-2.3-8.5
			c-1.6-2.9-4.1-5.4-7.6-7.4c-3.5-2-8.1-3-14-3c-5.7,0-10.4,1.2-14.3,3.6c-3.8,2.4-6.7,5.9-8.6,10.6c-1.9,4.7-2.9,10.4-2.9,17.1
			c0,7,0.9,13,2.8,18c1.8,5,4.8,8.7,8.8,11.3c4,2.6,9.2,3.9,15.7,3.9c3.8,0,7.1-0.3,9.8-0.8c2.7-0.6,4.9-1.3,6.5-2.2
			c1.6-0.9,2.9-1.8,3.7-2.9c0.8-1,1.3-2,1.5-3h47.8c-0.6,5.6-2.6,11-6.1,16.2c-3.5,5.2-8.3,9.9-14.3,14c-6.1,4.1-13.4,7.4-22,9.7
			c-8.6,2.4-18.2,3.5-29,3.5c-15,0-27.9-2.8-38.9-8.5c-11-5.6-19.4-13.5-25.3-23.5c-5.9-10-8.9-21.6-8.9-34.6c0-13.4,3-25,9.1-35
			c6.1-10,14.6-17.8,25.6-23.3c11-5.5,23.8-8.3,38.3-8.3c15,0,28,2.8,38.9,8.5s19.3,13.6,25.3,24c5.9,10.4,8.9,22.7,8.9,36.9
			c0,2.4,0,4.4-0.1,6.1c-0.1,1.7-0.2,3-0.4,4.1H1042.2z"/>
		<path class="st0" d="M1179.7,315.9V188.5h48.4v127.4H1179.7z M1268.4,315.9v-49.6c0-2.6,0-5.1,0-7.7c0-2.6,0-4.8,0-6.6
			c0-4.4-0.4-8.6-1.1-12.6c-0.8-4-2.5-7.3-5.2-9.8c-2.7-2.6-6.9-3.8-12.8-3.8c-5,0-9.1,1-12.2,3.1c-3.1,2.1-5.4,5.1-6.8,9
			c-1.4,3.9-2.2,8.6-2.2,14.2l-9.4-9.6c0-11.7,2.4-21.7,7.1-30.2c4.7-8.4,11.2-15,19.3-19.6c8.2-4.6,17.4-6.9,27.6-6.9
			c10.9,0,19.5,2.2,25.9,6.7c6.4,4.4,11,10.6,13.9,18.4c2.8,7.8,4.3,16.8,4.3,26.9c0,4.4,0,9.4,0,15.1c0,5.7,0,11.7,0,18v45H1268.4z
			"/>
		<path class="st0" d="M1393.2,319c-10.6,0-20.5-2.5-29.7-7.6c-9.2-5.1-16.5-12.6-22.1-22.7c-5.6-10-8.4-22.5-8.4-37.4
			c0-14.1,2.9-26,8.6-35.8c5.8-9.8,13.2-17.2,22.4-22.2c9.2-5,18.9-7.6,29.2-7.6c10.2,0,19.5,2.7,27.7,8
			c8.2,5.4,14.8,12.7,19.7,21.9c4.9,9.2,7.3,19.8,7.3,31.6c0,0.5,0,0.9,0,1.4c0,0.4,0,0.9,0,1.4h-17c0-0.2,0-0.5,0-0.8
			c0-0.3,0-0.5,0-0.8c0-5.4-1.2-9.8-3.6-13.2c-2.4-3.4-5.4-6-9.1-7.7c-3.6-1.7-7.3-2.6-11.1-2.6c-6.1,0-11.6,2-16.7,6.1
			c-5,4-7.6,10.8-7.6,20.2c0,9.4,2.5,16.3,7.6,20.5c5,4.2,10.6,6.4,16.7,6.4c3.8,0,7.6-0.9,11.2-2.7c3.6-1.8,6.6-4.5,9-8.1
			c2.4-3.6,3.5-8,3.5-13.3l17,1.2c0,11.8-2.4,22.5-7.3,32.1c-4.9,9.6-11.4,17.3-19.7,23C1412.7,316.2,1403.4,319,1393.2,319z
			 M1430.9,315.9V128.4h48.5v187.6H1430.9z"/>
		<path class="st0" d="M1546.9,318.4c-9,0-16.3-1.4-22-4.2c-5.7-2.8-10.2-6.6-13.4-11.5c-3.2-4.9-5.4-10.4-6.7-16.6
			c-1.3-6.2-1.9-12.7-1.9-19.5c0-2.8,0-5.8,0-8.9c0-3.2,0-6.4,0-9.8v-59.4h48.4v51.2c0,2.6,0,5.1,0,7.4c0,2.3,0,4.4,0,6.4
			c0,4.6,0.4,8.7,1.1,12.5c0.8,3.8,2.3,6.8,4.7,9.1c2.4,2.3,6,3.4,10.8,3.4s8.8-1.3,11.9-3.9c3.1-2.6,5.5-6,7-10.2
			c1.6-4.2,2.3-8.7,2.3-13.4l9.4,10.8c0,8.7-1.2,16.6-3.5,23.5c-2.4,7-5.8,12.9-10.2,17.8c-4.4,4.9-9.8,8.7-16.2,11.3
			S1555,318.4,1546.9,318.4z M1589.2,315.9V188.5h48.4v127.4H1589.2z"/>
		<path class="st0" d="M1660.3,315.9V188.5h48.5v47.2l-8.3-6.5c1.2-6.8,3.1-12.9,5.6-18.2c2.6-5.4,5.8-9.9,9.7-13.6
			c3.9-3.7,8.4-6.6,13.4-8.5c5.1-2,10.7-2.9,17-2.9c5.2,0,9.1,0.3,11.8,1c2.7,0.7,4.3,1.2,5,1.6l-6.6,42.2c-0.7-0.4-2.3-1-4.8-1.9
			c-2.5-0.8-5.5-1.3-9-1.3c-6.2,0-11.5,1-15.8,2.9c-4.3,2-7.8,4.6-10.4,7.9c-2.6,3.3-4.6,7-5.8,11.2c-1.2,4.1-1.8,8.3-1.8,12.5v53.8
			H1660.3z"/>
		<path class="st0" d="M1799.3,265.4v-28.8h75.1l-3.6,6.2c0-0.6,0-1.3,0-2.1c0-0.8,0-1.4,0-2c0-2.7-0.8-5.5-2.3-8.5
			c-1.6-2.9-4.1-5.4-7.6-7.4c-3.5-2-8.1-3-14-3c-5.7,0-10.4,1.2-14.3,3.6c-3.8,2.4-6.7,5.9-8.6,10.6c-1.9,4.7-2.9,10.4-2.9,17.1
			c0,7,0.9,13,2.8,18c1.8,5,4.8,8.7,8.8,11.3c4,2.6,9.2,3.9,15.7,3.9c3.8,0,7.1-0.3,9.8-0.8c2.7-0.6,4.9-1.3,6.5-2.2
			c1.6-0.9,2.9-1.8,3.7-2.9c0.8-1,1.3-2,1.5-3h47.8c-0.6,5.6-2.6,11-6.1,16.2c-3.5,5.2-8.3,9.9-14.3,14c-6.1,4.1-13.4,7.4-22,9.7
			c-8.6,2.4-18.2,3.5-29,3.5c-15,0-27.9-2.8-38.9-8.5c-11-5.6-19.4-13.5-25.3-23.5c-5.9-10-8.9-21.6-8.9-34.6c0-13.4,3-25,9.1-35
			c6.1-10,14.6-17.8,25.6-23.3c11-5.5,23.8-8.3,38.3-8.3c15,0,28,2.8,38.9,8.5s19.3,13.6,25.3,24c5.9,10.4,8.9,22.7,8.9,36.9
			c0,2.4,0,4.4-0.1,6.1c-0.1,1.7-0.2,3-0.4,4.1H1799.3z"/>
	</g>
</g>
<g>
	<g>
		<path class="st1" d="M116.6,362.4c0,32.9,9.9,64.5,28.7,91.5c17.8,25.5,42.2,45.1,70.8,56.9l60.8,71.9l42.5-220.3L277,202
			C188.6,202,116.6,274,116.6,362.4z"/>
		<path class="st0" d="M277,202v380.7l60.8-71.9c28.6-11.7,53-31.4,70.8-56.9c18.8-27,28.7-58.6,28.7-91.5
			C437.4,274,365.4,202,277,202z"/>
	</g>
	<g>
		<g>
			<path class="st2" d="M167,362.4c0,60.6,49.3,110,110,110l28.8-110l-28.8-110C216.4,252.5,167,301.8,167,362.4L167,362.4z"/>
			<path class="st2" d="M277,252.5v219.9c60.6,0,110-49.3,110-110S337.6,252.5,277,252.5L277,252.5z"/>
		</g>
		<g>
			<path class="st2" d="M251.6,334.5c-15.3,21.3-17.1,32-17.1,38.1c0,23.4,19.1,42.5,42.5,42.5c0,0,0,0,0,0l14.6-49.9L277,304.2
				C277,304.2,259.2,323.9,251.6,334.5L251.6,334.5z"/>
			<path class="st2" d="M319.5,372.6c0-6.2-1.8-16.8-17.1-38.1c-7.3-10.1-24-28.7-25.4-30.3v111C300.4,415.1,319.5,396,319.5,372.6z
				"/>
		</g>
	</g>
	<path class="st1" d="M279,458.3c-19-20.1-42.4-31.8-67.6-40.2c-3.7-1.2-7.6-1.8-11.4-2.7c-7.3-1.8-9-4.4-7.1-11.5
		c4.8-17.4,15-31.2,29.6-41.6c7.4-5.2,15.8-9,23.7-13.5c3.6-2.1,5.7-0.9,7.8,2.4c6.4,10.1,13,20.1,19.6,30.1
		c1.7,2.5,3.7,4.8,6.1,7.9c3.3-4.5,6.4-8.3,9.1-12.4c5.3-8,10.4-16.3,15.7-24.3c4-6,5.1-6.6,11.2-2.9c10.5,6.4,20.9,13.1,30.6,20.7
		c11,8.6,16.4,21,19.7,34.3c1.8,7.2,0.4,8.9-6.7,11.3c-13.5,4.4-27.3,8.3-40.4,13.6C303.6,435.8,291,446.2,279,458.3z"/>
	<path class="st3" d="M240.6,308c-0.4-20.4,16.4-37.5,37.6-37c22.1,0.5,38.5,17.6,37.5,39.1c-1.1,21.9-18.8,35.2-38.1,35.1
		C256.4,345.1,240.1,328.2,240.6,308z"/>
	<path class="st4" d="M269.3,314.8l25.1-25.1c1.7-1.7,5-2.2,7-0.9c3.1,2,3.4,6.2,1,8.6l-29.1,29.1c0,0,0,0-0.1,0.1
		c-2.2,2.1-5.7,2.2-7.8,0l-1.1-1.1l0,0L254,315.3c-1.7-1.7-2.2-5-0.9-7c2-3.1,6.2-3.4,8.6-1L269.3,314.8z"/>
</g>
<g>
	<g>
		<path class="st0" d="M622.9,507.7V414h23.5c6.2,0,11.8,1.1,16.7,3.2c5,2.2,9.2,5.3,12.8,9.3c3.5,4,6.3,9,8.2,14.7
			c1.9,5.8,2.9,12.3,2.9,19.5c0,7.2-1,13.7-2.9,19.5s-4.6,10.7-8.2,14.8c-3.5,4.1-7.8,7.2-12.8,9.3c-5,2.2-10.6,3.2-16.7,3.2H622.9z
			 M633.8,504.3l-4.9-6.2h16.2c6,0,11.3-1.5,16-4.5c4.6-3,8.3-7.3,10.9-12.9c2.6-5.6,3.9-12.2,3.9-19.9c0-7.7-1.3-14.3-3.9-19.9
			c-2.6-5.6-6.3-9.9-10.9-12.9c-4.6-3-10-4.5-16-4.5h-16.2l4.9-6.2V504.3z"/>
		<path class="st0" d="M731.8,508.9c-6.8,0-12.8-1.5-17.9-4.5c-5.2-3-9.2-7.2-12.2-12.4c-2.9-5.3-4.4-11.3-4.4-18
			c0-6.7,1.5-12.7,4.4-17.9c2.9-5.2,7-9.3,12.2-12.3c5.2-3,11.2-4.4,17.9-4.4c6.8,0,12.8,1.5,17.9,4.4c5.2,3,9.2,7,12.2,12.3
			c2.9,5.2,4.4,11.2,4.4,17.9c0,6.7-1.5,12.7-4.4,18c-2.9,5.3-7,9.4-12.2,12.4C744.5,507.4,738.6,508.9,731.8,508.9z M731.8,499
			c4.7,0,8.8-1,12.3-3.1c3.6-2.1,6.3-5,8.4-8.8c2-3.8,3-8.2,3-13.2c0-5-1-9.4-3-13.1c-2-3.7-4.8-6.6-8.4-8.6c-3.6-2-7.7-3-12.3-3
			c-4.6,0-8.7,1-12.3,3c-3.6,2-6.4,4.9-8.4,8.6c-2,3.7-3,8.1-3,13.1c0,5,1,9.4,3,13.2c2,3.8,4.8,6.7,8.4,8.8
			C723.1,497.9,727.2,499,731.8,499z"/>
		<path class="st0" d="M780,507.7v-67.4h10.8v67.4H780z M828.2,507.7v-32.3c0-1.9,0-3.5,0-4.8c0-1.2,0-2.4,0-3.6
			c0-3.5-0.6-6.6-1.8-9.2c-1.2-2.6-3-4.7-5.6-6.1c-2.5-1.4-5.9-2.2-10-2.2c-3.6,0-6.9,0.9-10,2.8c-3.1,1.8-5.5,4.3-7.4,7.4
			c-1.8,3.1-2.8,6.6-2.8,10.4l-6.2-2.3c0-5.3,1.3-10.1,3.9-14.4c2.6-4.3,6.1-7.8,10.4-10.3c4.3-2.6,9.1-3.8,14.2-3.8
			c5.2,0,9.8,1,13.7,3c3.9,2,6.9,4.8,9,8.5c2.1,3.7,3.2,8.2,3.2,13.4c0,1.9,0,3.9,0,6.1s0,4.3,0,6.2v31.3H828.2z"/>
		<path class="st0" d="M859,425.6c-2.2,0-3.9-0.6-5.2-1.9c-1.3-1.3-1.9-2.9-1.9-5c0-2.1,0.7-3.8,2.1-5.2c1.4-1.4,3.4-2.1,6-2.1
			c2.8,0,4.8,0.9,6.3,2.8c1.4,1.8,2.1,4.2,2.1,7c0,2.7-0.6,5.1-1.9,7.3s-2.9,4-4.9,5.5c-2,1.5-4,2.7-6.2,3.5l-1.5-3
			c1.6-0.6,3-1.4,4.4-2.5c1.4-1.1,2.5-2.3,3.4-3.6c0.9-1.4,1.3-2.8,1.3-4.2c-0.2,0.3-0.6,0.6-1.3,1C861,425.5,860.1,425.6,859,425.6
			z"/>
		<path class="st0" d="M909.1,508.7c-2.1,0-4.1-0.2-6.1-0.7c-2-0.5-3.8-1.3-5.4-2.5c-1.6-1.2-2.8-2.9-3.8-5.1
			c-0.9-2.2-1.4-5.1-1.4-8.6c0-0.9,0-1.8,0-2.8c0-1,0-2,0-3v-36.2h-16.4v-9.5h10.5c1.4,0,2.6-0.1,3.4-0.2c0.8-0.1,1.4-0.4,1.7-0.8
			c0.4-0.4,0.6-1.1,0.7-2.1c0.1-1,0.1-2.3,0.1-4v-15.3h10.9v22.4h21.1v9.5h-21.1v32.7c0,0.9,0,1.8,0,2.7c0,0.9,0,1.7,0,2.5
			c0,3.6,0.4,6.4,1.3,8.4c0.9,2,2.8,3,5.9,3c1.2,0,2.4-0.1,3.5-0.3c1.1-0.2,1.9-0.4,2.5-0.6v9.4c-0.7,0.3-1.7,0.5-3,0.7
			C912.2,508.6,910.8,508.7,909.1,508.7z"/>
		<path class="st0" d="M963.4,507.7V414H974v93.7H963.4z"/>
		<path class="st0" d="M990,507.7v-67.4h10.8v67.4H990z M1038.2,507.7v-32.3c0-1.9,0-3.5,0-4.8c0-1.2,0-2.4,0-3.6
			c0-3.5-0.6-6.6-1.8-9.2c-1.2-2.6-3-4.7-5.6-6.1c-2.5-1.4-5.9-2.2-10-2.2c-3.6,0-6.9,0.9-10,2.8c-3.1,1.8-5.5,4.3-7.4,7.4
			c-1.8,3.1-2.8,6.6-2.8,10.4l-6.2-2.3c0-5.3,1.3-10.1,3.9-14.4c2.6-4.3,6.1-7.8,10.4-10.3c4.3-2.6,9.1-3.8,14.2-3.8
			c5.2,0,9.8,1,13.7,3c3.9,2,6.9,4.8,9,8.5c2.1,3.7,3.2,8.2,3.2,13.4c0,1.9,0,3.9,0,6.1s0,4.3,0,6.2v31.3H1038.2z"/>
		<path class="st0" d="M1118.6,440.2l-22.6,67.4h-14.2l-23.1-67.4h11.2l19.9,61.7h-1.7l19.4-61.7H1118.6z"/>
		<path class="st0" d="M1135,424.8c-2,0-3.7-0.6-5.2-1.7s-2.2-2.7-2.2-4.6c0-1.9,0.7-3.4,2.2-4.5c1.5-1.1,3.2-1.7,5.2-1.7
			c2,0,3.7,0.6,5.1,1.7c1.4,1.1,2.2,2.6,2.2,4.5c0,1.9-0.7,3.5-2.2,4.6C1138.7,424.2,1136.9,424.8,1135,424.8z M1129.6,507.7v-67.4
			h10.7v67.4H1129.6z"/>
		<path class="st0" d="M1183.8,508.7c-2.1,0-4.1-0.2-6.1-0.7c-2-0.5-3.8-1.3-5.4-2.5c-1.6-1.2-2.8-2.9-3.8-5.1
			c-0.9-2.2-1.4-5.1-1.4-8.6c0-0.9,0-1.8,0-2.8c0-1,0-2,0-3v-36.2h-16.4v-9.5h10.5c1.4,0,2.6-0.1,3.4-0.2c0.8-0.1,1.4-0.4,1.7-0.8
			c0.4-0.4,0.6-1.1,0.7-2.1c0.1-1,0.1-2.3,0.1-4v-15.3h10.9v22.4h21.1v9.5h-21.1v32.7c0,0.9,0,1.8,0,2.7c0,0.9,0,1.7,0,2.5
			c0,3.6,0.4,6.4,1.3,8.4c0.9,2,2.8,3,5.9,3c1.2,0,2.4-0.1,3.5-0.3c1.1-0.2,1.9-0.4,2.5-0.6v9.4c-0.7,0.3-1.7,0.5-3,0.7
			C1186.9,508.6,1185.5,508.7,1183.8,508.7z"/>
		<path class="st0" d="M1213.3,478.3v-9.7h52.1l-1.9,3.2c0-0.3,0-0.5,0-0.7s0-0.5,0-0.7c0-3.9-0.8-7.5-2.4-10.7
			c-1.6-3.2-4.1-5.8-7.3-7.8c-3.2-1.9-7.2-2.9-11.9-2.9c-4.8,0-9,1-12.6,3c-3.6,2-6.5,4.9-8.5,8.6c-2,3.7-3,8.1-3,13.2
			c0,5.2,1,9.7,3,13.5c2,3.8,4.8,6.7,8.4,8.7c3.6,2,8,3,13,3c3.6,0,6.6-0.4,9.3-1.1c2.6-0.7,4.8-1.7,6.5-3c1.7-1.2,3-2.6,3.9-4.1
			c0.9-1.5,1.4-3,1.6-4.4h10.8c-0.2,2.7-1.1,5.4-2.5,8.1c-1.5,2.7-3.6,5.1-6.3,7.3c-2.7,2.2-6,3.9-10,5.2s-8.5,2-13.6,2
			c-6.8,0-12.7-1.5-17.9-4.4c-5.2-3-9.2-7.1-12.2-12.3c-2.9-5.2-4.4-11.3-4.4-18.1c0-6.9,1.5-13,4.4-18.2c3-5.2,7-9.3,12.3-12.3
			c5.2-3,11.2-4.4,17.8-4.4c6.8,0,12.7,1.5,17.7,4.4c5,3,8.8,7,11.6,12.2c2.7,5.1,4.1,11,4.1,17.6c0,0.7,0,1.6-0.1,2.7
			c0,1.1-0.1,1.8-0.2,2.2H1213.3z"/>
		<path class="st0" d="M1283.8,477.8v-12.1h46.3v12.1H1283.8z"/>
		<path class="st0" d="M1339.2,477.8v-12.1h46.3v12.1H1339.2z"/>
		<path class="st0" d="M1394.7,477.8v-12.1h46.3v12.1H1394.7z"/>
		<path class="st0" d="M1454.7,507.7V414h10.7v93.7H1454.7z"/>
		<path class="st0" d="M1481.3,507.7v-67.4h10.8v67.4H1481.3z M1529.6,507.7v-32.3c0-1.9,0-3.5,0-4.8c0-1.2,0-2.4,0-3.6
			c0-3.5-0.6-6.6-1.8-9.2c-1.2-2.6-3-4.7-5.6-6.1c-2.5-1.4-5.9-2.2-10-2.2c-3.6,0-6.9,0.9-10,2.8c-3.1,1.8-5.5,4.3-7.4,7.4
			c-1.8,3.1-2.8,6.6-2.8,10.4l-6.2-2.3c0-5.3,1.3-10.1,3.9-14.4c2.6-4.3,6.1-7.8,10.4-10.3c4.3-2.6,9.1-3.8,14.2-3.8
			c5.2,0,9.8,1,13.7,3c3.9,2,6.9,4.8,9,8.5c2.1,3.7,3.2,8.2,3.2,13.4c0,1.9,0,3.9,0,6.1s0,4.3,0,6.2v31.3H1529.6z"/>
		<path class="st0" d="M1581.8,509c-4.1,0-7.8-0.4-11.3-1.3c-3.5-0.9-6.5-2.1-9-3.8c-2.6-1.7-4.6-3.7-6-6.2
			c-1.4-2.5-2.1-5.3-2.1-8.4c0-0.3,0-0.7,0-1c0-0.4,0-0.7,0-0.9h10.9c0,0.3,0,0.5,0,0.6s0,0.4,0,0.8c0,3.4,1.6,6,4.8,7.8
			c3.2,1.8,7.5,2.7,13,2.7c3.4,0,6.4-0.3,9.1-1c2.7-0.7,4.8-1.7,6.3-3.1c1.5-1.4,2.3-3.2,2.3-5.3c0-3.5-1.6-6-4.9-7.5
			c-3.3-1.5-8.2-2.8-14.7-3.9c-3.4-0.6-6.7-1.4-9.8-2.3c-3.1-1-5.8-2.2-8.2-3.7c-2.4-1.5-4.3-3.4-5.7-5.7c-1.4-2.3-2.1-5-2.1-8.2
			c0-4.1,1.2-7.6,3.7-10.4c2.4-2.9,5.7-5,9.9-6.5c4.1-1.5,8.8-2.3,13.8-2.3c4.9,0,9.4,0.8,13.6,2.3c4.1,1.6,7.5,3.8,10,6.8
			c2.5,3,3.8,6.7,3.8,11c0,0.2,0,0.4,0,0.6c0,0.2,0,0.5,0,0.7h-10.8c0-0.2,0-0.4,0-0.5s0-0.3,0-0.4c0-2.5-0.8-4.5-2.3-6.1
			c-1.6-1.6-3.6-2.8-6.1-3.6c-2.5-0.8-5.2-1.2-8-1.2c-2.7,0-5.3,0.3-7.9,0.9c-2.6,0.6-4.7,1.5-6.4,2.8c-1.7,1.3-2.5,3.1-2.5,5.4
			s0.8,4.1,2.4,5.5c1.6,1.4,3.8,2.5,6.7,3.4c2.9,0.9,6.3,1.7,10.3,2.4c3.5,0.6,6.8,1.4,10,2.4s5.9,2.2,8.3,3.7
			c2.4,1.5,4.3,3.4,5.7,5.6c1.4,2.3,2.1,5,2.1,8.3c0,3.3-0.8,6.2-2.3,8.6c-1.5,2.5-3.6,4.5-6.2,6.2c-2.6,1.7-5.7,2.9-9.1,3.7
			C1589.4,508.5,1585.7,509,1581.8,509z"/>
		<path class="st0" d="M1656.1,509c-6.4,0-12.3-1.4-17.5-4.2c-5.2-2.8-9.4-6.8-12.5-12.1c-3.1-5.2-4.6-11.5-4.6-18.7
			s1.5-13.5,4.6-18.6c3.1-5.2,7.2-9.2,12.5-11.9c5.2-2.8,11.1-4.1,17.5-4.1c4.9,0,9.3,0.8,13.1,2.3c3.9,1.5,7.1,3.5,9.8,6
			c2.7,2.5,4.7,5.2,6.1,8.2c1.4,3,2.1,6,2.1,8.9c0,0,0,0.1,0,0.2s0,0.2,0,0.3h-10.7c0-0.2,0-0.5-0.1-0.7c0-0.3-0.1-0.6-0.1-0.9
			c-0.3-2.8-1.4-5.3-3.2-7.5c-1.8-2.1-4.2-3.8-7.1-5s-6.2-1.8-10-1.8c-4.2,0-8.1,0.9-11.7,2.7c-3.6,1.8-6.5,4.5-8.6,8.2
			c-2.2,3.7-3.3,8.3-3.3,13.9c0,5.5,1.1,10.2,3.2,13.9c2.2,3.7,5,6.5,8.6,8.4c3.6,1.9,7.5,2.8,11.7,2.8c4.6,0,8.3-0.7,11.3-2.2
			c3-1.4,5.2-3.4,6.7-5.7c1.5-2.4,2.3-5,2.5-7.7h10.7c0,3-0.7,6.1-2,9.1c-1.4,3-3.3,5.8-6,8.3s-5.9,4.5-9.7,5.9
			C1665.7,508.2,1661.2,509,1656.1,509z"/>
		<path class="st0" d="M1700.9,507.7v-67.4h10.8v20.7l-3.6-1.3c0.3-2.5,0.9-5,1.9-7.4c1-2.4,2.4-4.6,4.2-6.6c1.8-2,4.1-3.5,6.8-4.7
			c2.7-1.2,5.9-1.7,9.5-1.7c2.7,0,4.9,0.2,6.6,0.7c1.7,0.4,2.8,0.8,3.2,1l-2.8,10.6c-0.4-0.3-1.3-0.7-2.6-1.1
			c-1.3-0.5-3.1-0.7-5.5-0.7c-3.5,0-6.4,0.6-8.7,1.9c-2.3,1.3-4.1,3-5.5,5c-1.3,2.1-2.3,4.4-2.8,6.8c-0.6,2.5-0.8,4.9-0.8,7.3v36.9
			H1700.9z"/>
		<path class="st0" d="M1754.9,424.8c-2,0-3.7-0.6-5.2-1.7c-1.5-1.1-2.2-2.7-2.2-4.6c0-1.9,0.7-3.4,2.2-4.5c1.5-1.1,3.2-1.7,5.2-1.7
			c2,0,3.7,0.6,5.1,1.7c1.4,1.1,2.2,2.6,2.2,4.5c0,1.9-0.7,3.5-2.2,4.6C1758.6,424.2,1756.9,424.8,1754.9,424.8z M1749.5,507.7
			v-67.4h10.7v67.4H1749.5z"/>
		<path class="st0" d="M1777.1,507.7v-99.3h10.9v99.3H1777.1z M1810.1,509c-5.2,0-10.1-1.3-14.6-3.8c-4.5-2.6-8.2-6.1-11-10.6
			c-2.8-4.5-4.2-9.6-4.2-15.4c0-0.1,0-0.2,0-0.3c0-0.1,0-0.2,0-0.3l7.7-0.2c0,0.1,0,0.2,0,0.3s0,0.2,0,0.3c0,3.6,1,7,2.9,10
			c1.9,3,4.5,5.4,7.6,7.2c3.1,1.8,6.5,2.7,10.1,2.7c6,0,10.9-2,14.9-6.1c4-4.1,5.9-10.3,5.9-18.7c0-8.4-2-14.7-5.9-18.7
			c-3.9-4-8.9-6.1-14.9-6.1c-3.6,0-7,0.9-10.1,2.6c-3.1,1.8-5.7,4.1-7.6,7.1c-1.9,3-2.9,6.3-2.9,10l-7.7-0.3
			c0-5.8,1.4-10.9,4.2-15.3c2.8-4.4,6.5-7.8,11-10.3c4.5-2.5,9.4-3.7,14.6-3.7c5.5,0,10.5,1.3,15.1,4c4.6,2.7,8.3,6.6,11.1,11.8
			c2.8,5.2,4.2,11.5,4.2,18.9c0,7.5-1.4,13.9-4.1,19.1c-2.8,5.2-6.4,9.2-11,11.9C1820.7,507.6,1815.6,509,1810.1,509z"/>
		<path class="st0" d="M1857.6,478.3v-9.7h52.1l-1.9,3.2c0-0.3,0-0.5,0-0.7s0-0.5,0-0.7c0-3.9-0.8-7.5-2.4-10.7
			c-1.6-3.2-4.1-5.8-7.3-7.8c-3.2-1.9-7.2-2.9-11.9-2.9c-4.8,0-9,1-12.6,3c-3.6,2-6.5,4.9-8.5,8.6c-2,3.7-3,8.1-3,13.2
			c0,5.2,1,9.7,3,13.5c2,3.8,4.8,6.7,8.4,8.7c3.6,2,8,3,13,3c3.6,0,6.6-0.4,9.3-1.1c2.6-0.7,4.8-1.7,6.5-3c1.7-1.2,3-2.6,3.9-4.1
			c0.9-1.5,1.4-3,1.6-4.4h10.8c-0.2,2.7-1.1,5.4-2.5,8.1c-1.5,2.7-3.6,5.1-6.3,7.3c-2.7,2.2-6,3.9-10,5.2c-3.9,1.3-8.5,2-13.6,2
			c-6.8,0-12.7-1.5-17.9-4.4c-5.2-3-9.2-7.1-12.2-12.3c-2.9-5.2-4.4-11.3-4.4-18.1c0-6.9,1.5-13,4.4-18.2c3-5.2,7-9.3,12.3-12.3
			c5.2-3,11.2-4.4,17.8-4.4c6.8,0,12.7,1.5,17.7,4.4c5,3,8.8,7,11.6,12.2c2.7,5.1,4.1,11,4.1,17.6c0,0.7,0,1.6-0.1,2.7
			c0,1.1-0.1,1.8-0.2,2.2H1857.6z"/>
	</g>
</g>
<rect x="1282.9" y="465.7" class="st0" width="157.3" height="12.1"/>
</svg>
